<svg xmlns="http://www.w3.org/2000/svg" width="400" height="144.059" viewBox="0 0 400 144.059">
  <g id="Grupo_1110231" data-name="Grupo 1110231" transform="translate(-600.051 -1405)">
    <rect id="Rectángulo_404070" data-name="Rectángulo 404070" width="400" height="116" transform="translate(600.051 1419)" fill="#2d3bf3"/>
    <g id="Fill_Outline" data-name="Fill Outline" transform="translate(726.053 1403.002)">
      <g id="Color" transform="translate(4.403 4.403)">
        <path id="Trazado_900092" data-name="Trazado 900092" d="M92.828,74.617V60.211H84.757a30.931,30.931,0,0,0-3.8-9.155l5.712-5.712L76.483,35.158,70.771,40.87a30.931,30.931,0,0,0-9.155-3.8V29H47.211v8.072a30.931,30.931,0,0,0-9.155,3.8l-5.712-5.712L22.158,45.345l5.712,5.712a30.93,30.93,0,0,0-3.8,9.155H16V74.617h8.072a30.931,30.931,0,0,0,3.8,9.155l-5.712,5.712L32.345,99.67l5.709-5.712a30.972,30.972,0,0,0,9.157,3.8v8.072H61.617V97.757a30.972,30.972,0,0,0,9.157-3.8l5.709,5.712L86.67,89.483l-5.712-5.712a30.93,30.93,0,0,0,3.8-9.155Zm-38.414,3.6a10.8,10.8,0,1,1,10.8-10.8A10.8,10.8,0,0,1,54.414,78.218Z" transform="translate(15.212 33.424)" fill="#fcbc04"/>
        <path id="Trazado_900093" data-name="Trazado 900093" d="M64.018,91.9a36.237,36.237,0,0,1-7.027-.7l5.232-9.059a19.229,19.229,0,0,0,3-5.208l.384-.667A12,12,0,0,0,66.387,65.9l-1.395-3.57a12,12,0,0,1,.785-10.372l10.78-18.64-.074-.072-5.712,5.712a30.93,30.93,0,0,0-9.155-3.81V30.373l-8.3,14.384a11.988,11.988,0,0,1-6.1,5.2,11.988,11.988,0,0,1-6.1-5.2l-3.765-6.518-5-5L22.158,43.422l5.712,5.712a30.931,30.931,0,0,0-3.8,9.155H16V72.693h8.072a30.931,30.931,0,0,0,3.8,9.155L22.158,87.56,32.345,97.747l5.709-5.712a30.972,30.972,0,0,0,9.157,3.8V103.9H61.617V95.833a30.972,30.972,0,0,0,9.157-3.8l5.709,5.712L86.67,87.56l-2.113-2.113A35.824,35.824,0,0,1,64.018,91.9ZM29.572,61.868l-.807,1.395A34.734,34.734,0,0,1,28.314,51.4l.322.559a12,12,0,0,1,.936,9.908ZM43.61,65.491a10.8,10.8,0,1,1,10.8,10.8A10.8,10.8,0,0,1,43.61,65.491Z" transform="translate(15.212 35.347)" fill="#e59730"/>
        <path id="Trazado_900094" data-name="Trazado 900094" d="M70.7,82.229A19.13,19.13,0,0,1,48.739,94.9L33.964,82.373A12,12,0,0,1,33.179,72l1.395-3.57a12,12,0,0,0-.785-10.372L17.463,29.792l12.485-7.2,16.326,28.27a12,12,0,0,0,8.588,5.865l3.791.576a12,12,0,0,1,8.588,5.865ZM44.2,80.892a9.6,9.6,0,1,0,3.515-13.118A9.6,9.6,0,0,0,44.2,80.892Z" transform="translate(17.262 24.443)" fill="#93999a"/>
        <path id="Trazado_900095" data-name="Trazado 900095" d="M67.23,63.165a12.016,12.016,0,0,0-8.6-5.858l-3.769-.576A11.865,11.865,0,0,1,48.143,53.3l-1.825.912a7.2,7.2,0,0,1-9.387-2.737L30.569,40.885a7.2,7.2,0,0,1,3.865-10.516l-4.49-7.779-12.485,7.2L33.786,58.051a12.033,12.033,0,0,1,.792,10.372L33.186,72a12.019,12.019,0,0,0,.792,10.372L48.744,94.9A19.133,19.133,0,0,0,70.688,82.228ZM57.315,84.413a9.592,9.592,0,1,1,4.494-5.833,9.6,9.6,0,0,1-4.494,5.833Z" transform="translate(17.257 24.444)" fill="#656b76"/>
        <path id="Trazado_900096" data-name="Trazado 900096" d="M5.4,20.45,34.512,3.644A4.8,4.8,0,0,1,41.071,5.4L65.08,46.987A53.2,53.2,0,0,0,27.653,68.595L3.644,27.009A4.8,4.8,0,0,1,5.4,20.45ZM32.6,43.559A4.8,4.8,0,1,0,34.361,37,4.8,4.8,0,0,0,32.6,43.559Z" transform="translate(-3 -3)" fill="#d0d8da"/>
        <path id="Trazado_900097" data-name="Trazado 900097" d="M5.4,11.237,8.255,9.58,19.755,28.4a19.193,19.193,0,0,0,25.785,6.722l13.613-7.659,5.93,10.3a53.2,53.2,0,0,0-37.43,21.608L3.645,17.791A4.8,4.8,0,0,1,5.4,11.237Z" transform="translate(-2.996 6.218)" fill="#93999a"/>
        <path id="Trazado_900098" data-name="Trazado 900098" d="M63.794,68.434a12,12,0,0,1,.785-10.372L80.9,29.792l-12.485-7.2L52.094,50.859a12,12,0,0,1-8.588,5.865l-3.791.576a12,12,0,0,0-8.588,5.865L22,78.964l5.656,3.265A19.128,19.128,0,0,0,49.617,94.9l5.656,3.268,9.123-15.8A12,12,0,0,0,65.182,72ZM54.166,80.892a9.6,9.6,0,1,1-3.517-13.118,9.6,9.6,0,0,1,3.517,13.118Z" transform="translate(23.623 24.443)" fill="#d0d8da"/>
        <path id="Trazado_900099" data-name="Trazado 900099" d="M63.785,68.423a12.033,12.033,0,0,1,.792-10.372L80.9,29.793l-12.485-7.2-4.9,8.475a12.8,12.8,0,0,1,.312,14.213L57.087,55.866a12.835,12.835,0,0,0-.648,12.6l1.1,2.185a12.866,12.866,0,0,1,0,11.476l-.12.192a12.809,12.809,0,0,1-21.7,1.969l-4.13-5.5-7.035-4.226L22.01,78.963l5.666,3.265A19.133,19.133,0,0,0,49.62,94.9l5.666,3.265,9.1-15.8A12.019,12.019,0,0,0,65.178,72Z" transform="translate(23.631 24.444)" fill="#93999a"/>
        <path id="Trazado_900100" data-name="Trazado 900100" d="M94.822,20.45,65.711,3.644A4.8,4.8,0,0,0,59.152,5.4L35.143,46.987A53.2,53.2,0,0,1,72.57,68.595L96.579,27.009a4.8,4.8,0,0,0-1.757-6.559ZM67.62,43.559A4.8,4.8,0,1,1,65.86,37,4.8,4.8,0,0,1,67.62,43.559Z" transform="translate(42.029 -3)" fill="#e9f1f2"/>
        <path id="Trazado_900101" data-name="Trazado 900101" d="M94.826,11.237,91.969,9.58,80.469,28.4a19.193,19.193,0,0,1-25.786,6.722L41.07,27.467l-5.93,10.3A53.2,53.2,0,0,1,72.57,59.374L96.579,17.791A4.8,4.8,0,0,0,94.826,11.237Z" transform="translate(42.025 6.218)" fill="#d0d8da"/>
      </g>
      <g id="Outline_copy" data-name="Outline copy" transform="translate(1.998 1.998)">
        <path id="Trazado_900102" data-name="Trazado 900102" d="M94.229,49.675H88a33.291,33.291,0,0,0-2.641-6.36l4.408-4.408a2.4,2.4,0,0,0-3.395-3.4l-5.712,5.709a2.4,2.4,0,0,0-.346,2.96,28.571,28.571,0,0,1,3.505,8.446,2.4,2.4,0,0,0,2.336,1.849h5.671v9.6H86.157a2.4,2.4,0,0,0-2.336,1.848,28.571,28.571,0,0,1-3.505,8.447,2.4,2.4,0,0,0,.346,2.96l4.014,4.012-6.792,6.792-4.012-4.009a2.4,2.4,0,0,0-2.96-.346,28.727,28.727,0,0,1-8.446,3.505,2.4,2.4,0,0,0-1.849,2.336v5.668h-9.6V89.624a2.4,2.4,0,0,0-1.848-2.336,28.727,28.727,0,0,1-8.447-3.505,2.4,2.4,0,0,0-2.96.346L33.746,88.14l-6.792-6.792,4.014-4.012a2.4,2.4,0,0,0,.346-2.96,28.571,28.571,0,0,1-3.505-8.446,2.4,2.4,0,0,0-2.336-1.849H19.8V61.075a2.4,2.4,0,1,0-4.8,0v5.407a2.4,2.4,0,0,0,2.4,2.4h6.228a33.29,33.29,0,0,0,2.641,6.36L21.862,79.65a2.4,2.4,0,0,0,0,3.395L32.046,93.232a2.4,2.4,0,0,0,3.395,0l4.408-4.406a33.411,33.411,0,0,0,6.362,2.639v6.228a2.4,2.4,0,0,0,2.4,2.4H63.018a2.4,2.4,0,0,0,2.4-2.4V91.465a33.41,33.41,0,0,0,6.36-2.641l4.408,4.406a2.4,2.4,0,0,0,3.395,0L89.768,83.048a2.4,2.4,0,0,0,0-3.395L85.36,75.245A33.291,33.291,0,0,0,88,68.882h6.228a2.4,2.4,0,0,0,2.4-2.4V52.076a2.4,2.4,0,0,0-2.4-2.4Z" transform="translate(16.217 43.965)" fill="#323232"/>
        <path id="Trazado_900103" data-name="Trazado 900103" d="M21.278,30.3a7.2,7.2,0,1,0-7.1-5.942,7.2,7.2,0,0,0,7.1,5.942Zm-1.215-9.282a2.4,2.4,0,1,1-1.12,1.459A2.4,2.4,0,0,1,20.063,21.016Z" transform="translate(14.904 17.466)" fill="#323232"/>
        <path id="Trazado_900104" data-name="Trazado 900104" d="M145.816,24.149a7.155,7.155,0,0,0-3.361-4.379L113.347,2.964A7.2,7.2,0,0,0,103.5,5.6L91.82,25.839a2.4,2.4,0,0,0,4.161,2.4l3.277-5.68,33.267,19.207L118.7,65.711A55.737,55.737,0,0,0,85.434,46.5l5.745-9.944a2.4,2.4,0,1,0-4.161-2.4L79.5,47.188a2.4,2.4,0,0,0,1.827,3.587,50.638,50.638,0,0,1,11.284,2.538L83.633,68.837v-2.01a2.4,2.4,0,0,0-2.4-2.4H66.827a2.4,2.4,0,0,0-2.4,2.4v2.01L55.464,53.313a50.637,50.637,0,0,1,11.284-2.538,2.4,2.4,0,0,0,1.827-3.587L44.566,5.6a7.2,7.2,0,0,0-9.844-2.641L5.6,19.77a7.2,7.2,0,0,0-2.641,9.844L16.2,52.539a2.4,2.4,0,1,0,4.158-2.4l-4.826-8.372L43.606,25.561A2.4,2.4,0,1,0,41.2,21.4L13.131,37.608l-2.4-4.158L44,14.243,62.623,46.5A55.737,55.737,0,0,0,29.356,65.711l-4.192-7.255a2.4,2.4,0,1,0-4.158,2.4L26.972,71.2a2.4,2.4,0,0,0,1.954,1.2h.127a2.4,2.4,0,0,0,1.94-.989,50.644,50.644,0,0,1,7.829-8.494L46.074,75.47l-6,6a2.4,2.4,0,0,0,0,3.395l4.408,4.408a33.29,33.29,0,0,0-2.636,6.362H35.616a2.4,2.4,0,1,0,0,4.8h8.072a2.4,2.4,0,0,0,2.336-1.848,28.571,28.571,0,0,1,3.505-8.447,2.4,2.4,0,0,0-.346-2.96l-4.014-4.012,3.395-3.4,4.8,8.333a9.57,9.57,0,0,1,.778,7.776l-6.189,10.722a2.4,2.4,0,0,0,.879,3.282l4.9,2.826a21.634,21.634,0,0,0,8.751,10.564,2.4,2.4,0,1,0,2.533-4.082,16.806,16.806,0,0,1-7.049-8.883A2.42,2.42,0,0,0,56.89,109l-3.577-2.065,4.8-8.317,4.391,2.516a11.985,11.985,0,0,0,20.347,11.748l4.382,2.535-4.8,8.317-3.577-2.065a2.42,2.42,0,0,0-1.681-.274,16.566,16.566,0,0,1-4.139.3,2.437,2.437,0,0,0-2.511,2.288A2.4,2.4,0,0,0,72.81,126.5a21.8,21.8,0,0,0,4.4-.24l4.9,2.828a2.434,2.434,0,0,0,1.2.319,2.4,2.4,0,0,0,2.079-1.2l9.123-15.8a14.343,14.343,0,0,0,.944-12.444l-1.395-3.573a9.541,9.541,0,0,1,.629-8.3l11.186-19.375a2.4,2.4,0,1,0-4.161-2.4L90.529,85.7a14.331,14.331,0,0,0-.944,12.446l1.395,3.57a9.558,9.558,0,0,1-.624,8.3l-.72,1.241-4.37-2.523A12,12,0,0,0,64.894,96.973l-4.37-2.521.72-1.241a9.58,9.58,0,0,1,6.874-4.691l3.789-.579A14.331,14.331,0,0,0,82.214,80.9L97.1,55.111a50.865,50.865,0,0,1,19.959,16.295,2.4,2.4,0,0,0,1.94.989h.127a2.4,2.4,0,0,0,1.954-1.2L145.1,29.613a7.138,7.138,0,0,0,.72-5.464ZM41.6,10.085,8.33,29.292l-1.2-2.082a2.4,2.4,0,0,1,.876-3.275L37.116,7.129a2.4,2.4,0,0,1,3.28.876ZM77.48,98.7a7.157,7.157,0,1,1-5.474-.738,7.2,7.2,0,0,1,5.474.738ZM58.765,88.5a14.242,14.242,0,0,0-1.232-2.787L42.648,59.915a50.941,50.941,0,0,1,8.314-4.8L65.848,80.906a14.267,14.267,0,0,0,2.161,2.775l-.622.1A14.3,14.3,0,0,0,58.765,88.5Zm15.25-6.242a9.6,9.6,0,0,1-4.007-3.736l-1.26-2.185a2.4,2.4,0,0,0,.48-1.424v-5.68h9.6V74.9a2.384,2.384,0,0,0,.48,1.426l-1.263,2.182a9.532,9.532,0,0,1-4.033,3.736ZM109.121,6.887a2.415,2.415,0,0,1,1.822.24l29.111,16.806a2.4,2.4,0,0,1,.876,3.277l-1.2,2.079L106.463,10.082,107.664,8A2.4,2.4,0,0,1,109.121,6.887Zm-7.46,11.524,2.4-4.158L137.329,33.46l-2.4,4.158Z" transform="translate(-1.998 -1.998)" fill="#323232"/>
        <path id="Trazado_900105" data-name="Trazado 900105" d="M51.126,30.3A7.2,7.2,0,1,0,44.9,26.692,7.2,7.2,0,0,0,51.126,30.3Zm-2.065-8.4a2.4,2.4,0,1,1,.879,3.28,2.4,2.4,0,0,1-.879-3.28Z" transform="translate(56.756 17.467)" fill="#323232"/>
      </g>
    </g>
  </g>
</svg>
