<svg xmlns="http://www.w3.org/2000/svg" width="71.55" height="71.563" viewBox="0 0 71.55 71.563">
  <g id="Page-1" transform="translate(-0.01 0)">
    <g id="_052---Piston" data-name="052---Piston" transform="translate(0.01 0)">
      <g id="Icons_copy" transform="translate(1.193 1.191)">
        <path id="Path" d="M19,53h8.349v4.771a2.385,2.385,0,0,1-2.385,2.385H21.385A2.385,2.385,0,0,1,19,57.771Z" transform="translate(3.649 9.023)" fill="#607d8b" fill-rule="evenodd"/>
        <path id="Path-2" data-name="Path" d="M23.385,53v4.771A2.385,2.385,0,0,1,21,60.156h3.578a2.385,2.385,0,0,0,2.385-2.385V53Z" transform="translate(4.034 9.023)" fill="#37474f" fill-rule="evenodd"/>
        <path id="Path-3" data-name="Path" d="M46,53h8.349v4.771a2.385,2.385,0,0,1-2.385,2.385H48.385A2.385,2.385,0,0,1,46,57.771Z" transform="translate(8.852 9.023)" fill="#607d8b" fill-rule="evenodd"/>
        <path id="Path-4" data-name="Path" d="M50.385,53v4.771A2.385,2.385,0,0,1,48,60.156h3.578a2.385,2.385,0,0,0,2.385-2.385V53Z" transform="translate(9.237 9.023)" fill="#37474f" fill-rule="evenodd"/>
        <path id="Path-5" data-name="Path" d="M21.771,36H57.552a4.771,4.771,0,0,1,4.771,4.771v13.12a2.385,2.385,0,0,1-2.385,2.385H19.385A2.385,2.385,0,0,1,17,53.891V40.771A4.771,4.771,0,0,1,21.771,36Z" transform="translate(3.263 5.747)" fill="#f44335" fill-rule="evenodd"/>
        <path id="Path-6" data-name="Path" d="M51.578,36H48a4.771,4.771,0,0,1,4.771,4.771v13.12a2.385,2.385,0,0,1-2.385,2.385h3.578a2.385,2.385,0,0,0,2.385-2.385V40.771A4.771,4.771,0,0,0,51.578,36Z" transform="translate(9.237 5.747)" fill="#c81e1e" fill-rule="evenodd"/>
        <path id="Path-7" data-name="Path" d="M17,41h9.542a1.193,1.193,0,0,1,1.066.66L28.8,44.045a1.193,1.193,0,0,1-1.066,1.726H17Z" transform="translate(3.263 6.71)" fill="#ffdc00" fill-rule="evenodd"/>
        <path id="Path-8" data-name="Path" d="M27.837,44.045,26.644,41.66A1.193,1.193,0,0,0,25.578,41H22a1.193,1.193,0,0,1,1.066.66l1.193,2.385a1.193,1.193,0,0,1-1.066,1.726h3.578a1.193,1.193,0,0,0,1.066-1.726Z" transform="translate(4.227 6.71)" fill="#fec108" fill-rule="evenodd"/>
        <path id="Path-9" data-name="Path" d="M56.927,41H47.386a1.2,1.2,0,0,0-1.066.655l-.6,1.193-.6,1.193a1.193,1.193,0,0,0,1.066,1.731H56.927Z" transform="translate(8.659 6.71)" fill="#ffdc00" fill-rule="evenodd"/>
        <path id="Path-10" data-name="Path" d="M52,41v4.771h3.578V41Z" transform="translate(10.008 6.71)" fill="#fec108" fill-rule="evenodd"/>
        <rect id="Rectangle" width="14.313" height="4.771" rx="1" transform="translate(35.769 52.481)" fill="#f5f5f5"/>
        <path id="Path-11" data-name="Path" d="M41.578,45H38a1.193,1.193,0,0,1,1.193,1.193v2.385A1.193,1.193,0,0,1,38,49.771h3.578a1.193,1.193,0,0,0,1.193-1.193V46.193A1.193,1.193,0,0,0,41.578,45Z" transform="translate(7.31 7.481)" fill="#cfd8dc" fill-rule="evenodd"/>
        <path id="Path-12" data-name="Path" d="M21,38.891,23.159,30.8l1.36-5.093.549-2.051A3.57,3.57,0,0,1,28.514,21H49.267a3.57,3.57,0,0,1,3.447,2.66l4.067,15.231" transform="translate(4.034 2.856)" fill="#00bcd4" fill-rule="evenodd"/>
        <path id="Path-13" data-name="Path" d="M48.725,23.66A3.57,3.57,0,0,0,45.278,21H41.7a3.57,3.57,0,0,1,3.447,2.66l4.067,15.231h3.578Z" transform="translate(8.023 2.856)" fill="#00838f" fill-rule="evenodd"/>
        <path id="Path-14" data-name="Path" d="M2.385,0H8.349V3.578A2.385,2.385,0,0,1,5.964,5.964H2.385A2.385,2.385,0,0,1,0,3.578V2.385A2.385,2.385,0,0,1,2.385,0Z" transform="translate(69.164 41.747) rotate(180)" fill="#f44335" fill-rule="evenodd"/>
        <path id="Path-15" data-name="Path" d="M56.578,31H53a2.385,2.385,0,0,1,2.385,2.385v1.193A2.385,2.385,0,0,1,53,36.964h3.578a2.385,2.385,0,0,0,2.385-2.385V33.385A2.385,2.385,0,0,0,56.578,31Z" transform="translate(10.201 4.783)" fill="#c81e1e" fill-rule="evenodd"/>
        <path id="Path-16" data-name="Path" d="M38.357,16.075,28.486,29.543a1.193,1.193,0,0,1-1.67.256l-1.924-1.41a1.193,1.193,0,0,1-.256-1.67l2.115-2.886L15.207,15.372l-2.116,2.886a1.193,1.193,0,0,1-1.67.256L9.5,17.105a1.193,1.193,0,0,1-.256-1.67L19.117,1.974a2.385,2.385,0,0,1,3.334-.514L37.837,12.74a2.393,2.393,0,0,1,.52,3.335Z" transform="translate(1.724 -0.998)" fill="#9e9e9e" fill-rule="evenodd"/>
        <path id="Path-17" data-name="Path" d="M36.179,12.739,20.793,1.458a2.385,2.385,0,0,0-3.151.311L32.607,12.743a2.391,2.391,0,0,1,.514,3.34L23.794,28.8l1.366,1a1.193,1.193,0,0,0,1.67-.258L36.7,16.074A2.391,2.391,0,0,0,36.179,12.739Z" transform="translate(3.387 -0.997)" fill="#707070" fill-rule="evenodd"/>
        <path id="Rectangle-2" data-name="Rectangle" d="M0,0H4.771V23.854H0Z" transform="matrix(0.591, -0.807, 0.807, 0.591, 16.605, 6.736)" fill="#545c60" fill-rule="evenodd"/>
        <path id="Rectangle-3" data-name="Rectangle" d="M0,0H14.313V4.771H0Z" transform="matrix(0.591, -0.807, 0.807, 0.591, 12.329, 28.733)" fill="#545c60" fill-rule="evenodd"/>
        <path id="Shape" d="M19.069,30.443,9.444,23.394a2.4,2.4,0,0,0-3.34.513l-5.63,7.7A2.371,2.371,0,0,0,.988,34.94L10.6,41.989a2.385,2.385,0,0,0,3.34-.513l5.642-7.693A2.4,2.4,0,0,0,19.069,30.443ZM11.949,34.1a2.385,2.385,0,1,1-.513-3.34A2.385,2.385,0,0,1,11.949,34.1Z" transform="translate(-0.011 3.229)" fill="#9e9e9e"/>
        <path id="Path-18" data-name="Path" d="M18.05,30.447,8.429,23.4a2.377,2.377,0,0,0-3.152.312l9.195,6.739a2.385,2.385,0,0,1,.514,3.34l-5.642,7.7a2.229,2.229,0,0,1-.181.2L9.589,42a2.385,2.385,0,0,0,3.34-.513l5.642-7.7a2.385,2.385,0,0,0-.52-3.34Z" transform="translate(1.004 3.23)" fill="#707070" fill-rule="evenodd"/>
      </g>
      <g id="Icons">
        <path id="Shape-2" data-name="Shape" d="M44.313,44H32.385A2.385,2.385,0,0,0,30,46.385v2.385a2.385,2.385,0,0,0,2.385,2.385H44.313A2.385,2.385,0,0,0,46.7,48.771V46.385A2.385,2.385,0,0,0,44.313,44Zm0,4.771H32.385V46.385H44.313Z" transform="translate(5.769 8.48)"/>
        <path id="Path-19" data-name="Path" d="M35.193,42.385h4.771a1.193,1.193,0,0,0,0-2.385H35.193a1.193,1.193,0,1,0,0,2.385Z" transform="translate(6.54 7.709)" fill-rule="evenodd"/>
        <path id="Shape-3" data-name="Shape" d="M67.982,35.781H64.4a3.554,3.554,0,0,0-2.719,1.281L59.105,27.4a4.771,4.771,0,0,0-4.6-3.547H37.2l.812-1.109L40.833,18.9l1.409-1.923a3.578,3.578,0,0,0-.769-5L26.084.689a3.585,3.585,0,0,0-5,.772L11.209,14.928a2.385,2.385,0,0,0,.513,3.34l1.925,1.41a2.385,2.385,0,0,0,3.34-.514l1.41-1.924,1.924,1.41-7.054,9.618-1.924-1.412a3.578,3.578,0,0,0-5,.77L.7,35.321a3.585,3.585,0,0,0,.77,5l9.619,7.05a3.548,3.548,0,0,0,2.108.693,3.6,3.6,0,0,0,.552-.043A3.551,3.551,0,0,0,16.091,46.6l2.82-3.845,2.818-3.845a3.578,3.578,0,0,0-.77-5L19.035,32.5l7.05-9.62,1.924,1.41L26.6,26.213a2.385,2.385,0,0,0,.514,3.34l1.231.9L25.3,41.84a5.956,5.956,0,0,0-5.022,5.868v13.12a3.578,3.578,0,0,0,2.385,3.359v3.8a3.578,3.578,0,0,0,3.578,3.578h3.578a3.578,3.578,0,0,0,3.578-3.578V64.406H54.863v3.578a3.578,3.578,0,0,0,3.578,3.578h3.578A3.578,3.578,0,0,0,65.6,67.984v-3.8a3.578,3.578,0,0,0,2.385-3.359V47.708a5.9,5.9,0,0,0-1.224-3.578h1.224a3.578,3.578,0,0,0,3.578-3.578V39.359A3.578,3.578,0,0,0,67.982,35.781ZM54.5,26.24A2.385,2.385,0,0,1,56.8,28.014l3.669,13.73H45.815l7.506-7.506a1.193,1.193,0,0,0-1.686-1.686l-9.192,9.192H35.08l7.506-7.506A1.193,1.193,0,0,0,40.9,32.553l-9.192,9.192H27.788l2.767-10.337a1.658,1.658,0,0,0,.254-.02,2.365,2.365,0,0,0,1.562-.948l3.082-4.2ZM20.891,5.756,38.206,18.448,36.8,20.372,19.481,7.681Zm3.782-3.143L40.066,13.9a1.2,1.2,0,0,1,.256,1.67l-.7.961L22.3,3.832l.7-.961a1.193,1.193,0,0,1,1.666-.258Zm-10.5,42.58a1.193,1.193,0,0,1-1.67.255L2.881,38.4a1.193,1.193,0,0,1-.259-1.663L4.737,33.85,7.8,36.1a3.564,3.564,0,0,0,3.409,4.6,3.615,3.615,0,0,0,.553-.043,3.542,3.542,0,0,0,1.46-.587l3.062,2.243Zm-1.989-7.375a1.193,1.193,0,1,1-.259-1.667,1.193,1.193,0,0,1,.259,1.667Zm7.847-1.209a1.183,1.183,0,0,1-.217.887l-2.115,2.886-3.062-2.243a3.559,3.559,0,0,0-5.42-3.973L6.15,31.922l2.116-2.886a1.193,1.193,0,0,1,1.67-.256l2.882,2.112,6.741,4.938a1.193,1.193,0,0,1,.468.78Zm4.139-15.14-7.05,9.619-1.924-1.413,7.05-9.619.963.7Zm2.373-1.218-2.814-2.062-4.882-3.578a1.193,1.193,0,0,0-1.67.258l-2.115,2.885L13.136,16.34,18.07,9.607,35.386,22.3,30.45,29.029l-1.924-1.411,2.116-2.885a1.193,1.193,0,0,0-.256-1.67ZM22.659,50.094h8.349L32.2,52.479H22.659Zm8.349,17.891a1.193,1.193,0,0,1-1.193,1.193H26.238a1.193,1.193,0,0,1-1.193-1.193V64.406h5.964Zm32.2,0a1.193,1.193,0,0,1-1.193,1.193H58.441a1.193,1.193,0,0,1-1.193-1.193V64.406h5.964ZM65.6,52.479H56.055l1.193-2.385H65.6Zm0-4.771H57.248a2.385,2.385,0,0,0-2.134,1.312l-1.193,2.385a2.385,2.385,0,0,0,2.134,3.459H65.6v5.964A1.193,1.193,0,0,1,64.4,62.021H23.852a1.193,1.193,0,0,1-1.193-1.193V54.865H32.2a2.385,2.385,0,0,0,2.134-3.459L33.142,49.02a2.373,2.373,0,0,0-2.134-1.312H22.659a3.578,3.578,0,0,1,3.578-3.578H62.019A3.578,3.578,0,0,1,65.6,47.708Zm3.578-7.156a1.193,1.193,0,0,1-1.193,1.193H63.212V39.359A1.193,1.193,0,0,1,64.4,38.167h3.578a1.193,1.193,0,0,1,1.193,1.193Z" transform="translate(-0.01 0)"/>
      </g>
    </g>
  </g>
</svg>
