<svg xmlns="http://www.w3.org/2000/svg" width="91.702" height="91.699" viewBox="0 0 91.702 91.699">
  <g id="Fill_Outline" data-name="Fill Outline" transform="translate(-2 -2)">
    <g id="color" transform="translate(3.525 3.528)">
      <g id="Grupo_1110200" data-name="Grupo 1110200" transform="translate(0)">
        <g id="Grupo_1110194" data-name="Grupo 1110194" transform="translate(31.792 0.001)">
          <path id="Trazado_900063" data-name="Trazado 900063" d="M42.144,3,23.8,34.766l14.559,8.406L37.244,39l4.175-1.119-2.442-4.941,4.175-1.119L40.71,26.878l4.175-1.119L42.443,20.82,46.619,19.7,45.5,15.526l4.175-1.119.41-6.822Z" transform="translate(-23.798 -3)" fill="#d0d8da"/>
          <path id="Trazado_900064" data-name="Trazado 900064" d="M40.712,26.878l.469-.125a7.626,7.626,0,0,1-1.328-9.3L46.683,5.62,42.14,3,23.8,34.766l14.559,8.406L37.249,39l4.175-1.12-2.445-4.939,4.175-1.119Z" transform="translate(-23.8 -3)" fill="#93999a"/>
        </g>
        <g id="Grupo_1110195" data-name="Grupo 1110195" transform="translate(4.998 55.54)">
          <rect id="Rectángulo_404159" data-name="Rectángulo 404159" width="18.34" height="18.34" rx="2" transform="matrix(-0.5, -0.866, 0.866, -0.5, 9.17, 25.052)" fill="#fcbc04"/>
          <path id="Trazado_900065" data-name="Trazado 900065" d="M15.332,42.122A9.17,9.17,0,0,1,11.35,53.308L8.786,54.787l3.793,6.572a3.057,3.057,0,0,0,4.175,1.119l10.59-6.113a3.057,3.057,0,0,0,1.119-4.175L22.35,41.6a3.057,3.057,0,0,0-4.175-1.119Z" transform="translate(-4.938 -38.954)" fill="#e59730"/>
          <circle id="Elipse_11555" data-name="Elipse 11555" cx="3.057" cy="3.057" r="3.057" transform="translate(9.469 9.469)" fill="#f89c8d"/>
          <path id="Trazado_900066" data-name="Trazado 900066" d="M14.8,49.286a3.04,3.04,0,0,1-2.21.324,3.136,3.136,0,0,0,.215.481,3.057,3.057,0,1,0,3.329-4.5A3.057,3.057,0,0,1,14.8,49.286Z" transform="translate(-2.928 -36.037)" fill="#f8664f"/>
        </g>
        <g id="Grupo_1110196" data-name="Grupo 1110196" transform="translate(0.003 36.678)">
          <path id="Trazado_900067" data-name="Trazado 900067" d="M0,0H30.566V12.226H0Z" transform="matrix(0.866, 0.5, -0.5, 0.866, 6.113, 0)" fill="#84d2f4"/>
          <path id="Trazado_900068" data-name="Trazado 900068" d="M19.273,30.838A7.622,7.622,0,0,1,9.1,33.268L5.517,31.2,3,35.56,29.47,50.844l6.113-10.588Z" transform="translate(-2.999 -24.971)" fill="#57b7eb"/>
        </g>
        <g id="Grupo_1110198" data-name="Grupo 1110198" transform="translate(0)">
          <path id="Trazado_900069" data-name="Trazado 900069" d="M0,0H16.811V15.283H0Z" transform="translate(8.645 12.834) rotate(-45)" fill="#d0d8da"/>
          <path id="Trazado_900070" data-name="Trazado 900070" d="M0,0H6.113V15.283H0Z" transform="translate(0 21.476) rotate(-45)" fill="#d0d8da"/>
          <path id="Trazado_900071" data-name="Trazado 900071" d="M0,0H6.113V9.17H0Z" transform="translate(6.485 19.316) rotate(-45)" fill="#656b76"/>
          <path id="Trazado_900072" data-name="Trazado 900072" d="M31.9,5.025l-.1.028a10.6,10.6,0,0,0-7.438,7.438l-.028.1L17.849,6.106A10.6,10.6,0,0,1,30.088,4.119Z" transform="translate(4.848 -2.999)" fill="#d0d8da"/>
          <path id="Trazado_900073" data-name="Trazado 900073" d="M0,0H9.17V30.566H0Z" transform="translate(22.692 20.399) rotate(-45)" fill="#57b7eb"/>
          <g id="Grupo_1110197" data-name="Grupo 1110197" transform="translate(0.004 0.514)">
            <path id="Trazado_900074" data-name="Trazado 900074" d="M23.786,13.2a6.113,6.113,0,0,1-8.646,0L11.714,9.774,8.657,12.83,19.464,23.637,31.351,11.75,28.294,8.693Z" transform="translate(-0.011 -0.506)" fill="#93999a"/>
            <path id="Trazado_900075" data-name="Trazado 900075" d="M10.565,22.085,4.528,16.053,3,17.581,13.807,28.388l4.324-4.316-1.574-1.58a4.571,4.571,0,0,1-5.991-.407Z" transform="translate(-3 3.382)" fill="#93999a"/>
            <path id="Trazado_900076" data-name="Trazado 900076" d="M28.59,3.336a10.62,10.62,0,0,0-2.8,2.833,2.717,2.717,0,0,1-4.2.439L19.555,4.577a10.533,10.533,0,0,0-1.706,1.351l6.485,6.485.026-.1A10.6,10.6,0,0,1,31.8,4.875l.1-.028-1.811-.9a10.635,10.635,0,0,0-1.5-.607Z" transform="translate(4.845 -3.336)" fill="#93999a"/>
          </g>
          <path id="Trazado_900077" data-name="Trazado 900077" d="M29.136,16.907,27.2,18.844a2.107,2.107,0,0,1-2.979-2.98l1.936-1.93L24.334,12.1l-6.485,6.485L39.462,40.2l6.485-6.485Z" transform="translate(4.848 1.808)" fill="#4891d3"/>
        </g>
        <g id="Grupo_1110199" data-name="Grupo 1110199" transform="translate(46.166 1.526)">
          <path id="Trazado_900078" data-name="Trazado 900078" d="M35.416,37.983l-2.211-2.211L56.979,12l6.485,6.485L46.376,35.567Z" transform="translate(-33.205 0.228)" fill="#93999a"/>
          <path id="Trazado_900079" data-name="Trazado 900079" d="M50.271,13.082,42.761,20.6a11.991,11.991,0,0,0,.9,1A12.168,12.168,0,0,0,51.2,25.131l7.212-7.224-2.292-2.292-1.66,1.66Z" transform="translate(-28.157 0.802)" fill="#656b76"/>
          <path id="Trazado_900080" data-name="Trazado 900080" d="M68.485,11.453l-9.092,9.092-6.485-6.485L62,4.969a12.226,12.226,0,1,0,6.485,6.485Z" transform="translate(-26.973 -3.998)" fill="#d0d8da"/>
          <path id="Trazado_900081" data-name="Trazado 900081" d="M67.408,16.575A12.217,12.217,0,0,1,46.546,8.123a12.216,12.216,0,1,0,22.879,5.751A12.107,12.107,0,0,1,67.408,16.575Z" transform="translate(-26.976 -1.818)" fill="#93999a"/>
        </g>
        <path id="Trazado_900082" data-name="Trazado 900082" d="M82.245,58.264V42.981H75.033a27.357,27.357,0,0,0-2.323-5.639L77.8,32.251,66.995,21.444,61.9,26.535a27.384,27.384,0,0,0-5.639-2.323V17H40.981v7.212a27.384,27.384,0,0,0-5.639,2.323l-5.091-5.091L19.444,32.251l5.091,5.091a27.357,27.357,0,0,0-2.323,5.639H15V58.264h7.212A27.384,27.384,0,0,0,24.535,63.9l-5.091,5.091L30.251,79.8l5.091-5.091a27.384,27.384,0,0,0,5.639,2.323v7.212H56.264V77.033A27.383,27.383,0,0,0,61.9,74.71L66.995,79.8,77.8,68.995,72.71,63.9a27.384,27.384,0,0,0,2.323-5.639ZM48.623,64.378A13.755,13.755,0,1,1,62.378,50.623,13.755,13.755,0,0,1,48.623,64.378Z" transform="translate(3.343 4.397)" fill="#f9e109"/>
        <path id="Trazado_900083" data-name="Trazado 900083" d="M66.962,71.487A39.736,39.736,0,0,1,28.739,20.9l-9.3,9.3,5.091,5.091a27.357,27.357,0,0,0-2.323,5.635H15V56.2h7.212a27.384,27.384,0,0,0,2.323,5.639l-5.091,5.091L30.251,77.741l5.091-5.091a27.384,27.384,0,0,0,5.639,2.323v7.212H56.264V74.973A27.383,27.383,0,0,0,61.9,72.65l5.091,5.091,6.862-6.862a39.889,39.889,0,0,1-6.894.608Z" transform="translate(3.343 6.457)" fill="#fcbc04"/>
      </g>
    </g>
    <g id="Outline_copy" data-name="Outline copy" transform="translate(2 2)">
      <g id="Grupo_1110201" data-name="Grupo 1110201">
        <path id="Trazado_900084" data-name="Trazado 900084" d="M89.114,49.378H83.029a29.081,29.081,0,0,0-1.576-3.821l4.3-4.295a1.528,1.528,0,0,0,0-2.163l-8.3-8.306a13.908,13.908,0,0,0,2.5.232A13.743,13.743,0,0,0,92.609,11.913a1.528,1.528,0,0,0-2.488-.484l-5.329,5.331a1.528,1.528,0,1,0,2.161,2.161l3.527-3.526a10.7,10.7,0,1,1-8.647-8.647l-7.287,7.288a1.528,1.528,0,0,0,0,2.161l6.485,6.485a1.528,1.528,0,1,0,2.161-2.161l-5.4-5.4L85.8,7.106a1.528,1.528,0,0,0-.484-2.488A13.736,13.736,0,0,0,66.927,21.656l-2.5,2.5a1.508,1.508,0,0,0-1.293-.764H56.68l-.521-1.053,2.375-.637a1.528,1.528,0,0,0,1.081-1.872l-.723-2.7,2.7-.723a1.528,1.528,0,0,0,1.129-1.386l.413-6.816a1.528,1.528,0,0,0-.764-1.415L54.421,2.205a1.528,1.528,0,0,0-2.089.559L40.564,23.146l-5.7-5.71,1.082-1.081a1.528,1.528,0,0,0,0-2.163L34.455,12.7A9.155,9.155,0,0,1,40.666,7.03a1.528,1.528,0,0,0,.286-2.843l-1.814-.906A12.09,12.09,0,0,0,26.3,4.559L25.134,3.393a1.528,1.528,0,0,0-2.161,0L19.152,7.2a1.528,1.528,0,1,0,2.161,2.161l2.734-2.731,8.644,8.644-9.726,9.728-8.63-8.64,2.671-2.673a1.528,1.528,0,1,0-2.161-2.161L11.093,15.28a1.528,1.528,0,0,0,0,2.163l1.081,1.079-2.163,2.163L8.931,19.6a1.528,1.528,0,0,0-2.161,0L2.448,23.925a1.528,1.528,0,0,0,0,2.161L13.255,36.893a1.528,1.528,0,0,0,2.161,0l4.322-4.327a1.528,1.528,0,0,0,0-2.161l-1.081-1.082,2.161-2.161L21.9,28.243a1.528,1.528,0,0,0,2.161,0l2.161-2.163,6.011,6.011-7,7a1.528,1.528,0,0,0,0,2.163l4.3,4.295a28.856,28.856,0,0,0-1.464,3.527l-17.657-10.2a1.528,1.528,0,0,0-2.088.559L2.2,50.032a1.528,1.528,0,0,0,.559,2.088l15.2,8.776L10.091,65.44A4.585,4.585,0,0,0,8.41,71.706L14.523,82.3a4.585,4.585,0,0,0,1,1.184L7.349,88.2a1.528,1.528,0,0,0-.559,2.089l1.528,2.647A1.528,1.528,0,1,0,10.965,91.4L10.2,90.081l11.667-6.737,5.52-3.187,8.65,8.65a1.528,1.528,0,0,0,2.163,0l4.295-4.3a29.081,29.081,0,0,0,3.825,1.574V92.17A1.528,1.528,0,0,0,47.849,93.7H63.132a1.528,1.528,0,0,0,1.528-1.528V86.086a29.08,29.08,0,0,0,3.821-1.576l4.295,4.3a1.528,1.528,0,0,0,2.163,0L85.751,78a1.528,1.528,0,0,0,0-2.163l-4.3-4.3a29.082,29.082,0,0,0,1.576-3.821h6.084a1.528,1.528,0,0,0,0-3.057H81.9a1.528,1.528,0,0,0-1.469,1.105,25.875,25.875,0,0,1-2.192,5.323,1.528,1.528,0,0,0,.257,1.819l4.01,4.012-8.646,8.646-4.006-4.01a1.528,1.528,0,0,0-1.819-.257,25.875,25.875,0,0,1-5.323,2.192,1.528,1.528,0,0,0-1.1,1.469v5.684H49.378V84.958a1.528,1.528,0,0,0-1.105-1.469A25.873,25.873,0,0,1,42.95,81.3a1.528,1.528,0,0,0-1.819.257l-4.012,4.01-8.646-8.646,4.01-4.006a1.528,1.528,0,0,0,.257-1.819,25.874,25.874,0,0,1-2.192-5.323,1.528,1.528,0,0,0-1.469-1.111H23.4V52.434H29.08a1.528,1.528,0,0,0,1.469-1.105,25.874,25.874,0,0,1,2.192-5.323,1.528,1.528,0,0,0-.257-1.819l-4.01-4.012,8.646-8.646,4.006,4.01a1.528,1.528,0,0,0,1.819.257,25.874,25.874,0,0,1,5.323-2.192,1.528,1.528,0,0,0,1.111-1.469V26.453H61.6v5.684a1.528,1.528,0,0,0,1.105,1.469A25.874,25.874,0,0,1,68.032,35.8a1.528,1.528,0,0,0,1.819-.257l4.012-4.01,8.646,8.646L78.5,44.181A1.528,1.528,0,0,0,78.241,46a25.873,25.873,0,0,1,2.192,5.323,1.528,1.528,0,0,0,1.469,1.1h5.684V60.07a1.528,1.528,0,0,0,3.057,0V50.906a1.528,1.528,0,0,0-1.528-1.528ZM14.335,33.651,5.689,25.006,7.85,22.845,16.5,31.5ZM16.5,27.167l-4.324-4.322,2.163-2.163,4.324,4.324ZM10.2,42.3l2.647,1.528L10.556,47.8A1.528,1.528,0,1,0,13.2,49.327L15.5,45.354l2.647,1.528L15.85,50.856A1.528,1.528,0,1,0,18.5,52.384l2.292-3.974,1.681.969h-.6a1.528,1.528,0,0,0-1.528,1.528v7.831l-14.724-8.5ZM21.13,70.172a1.528,1.528,0,0,1,.37,2.8,1.554,1.554,0,0,1-1.162.153,1.528,1.528,0,0,1,.394-3.006,1.6,1.6,0,0,1,.4.05Zm6.822-2.454a29.08,29.08,0,0,0,1.576,3.821l-4.3,4.3a1.519,1.519,0,0,0-.06,2.072l-5.911,3.41a1.528,1.528,0,0,1-1.158.153,1.508,1.508,0,0,1-.926-.712L11.061,70.169a1.528,1.528,0,0,1,.558-2.085l8.721-5.031v3.136a1.492,1.492,0,0,0,.321.893,4.576,4.576,0,0,0-1.114,9,4.643,4.643,0,0,0,1.2.153,4.568,4.568,0,0,0,2.317-8.513Zm8.607-62.2a12.249,12.249,0,0,0-4.432,4.872l-3.642-3.65A9.067,9.067,0,0,1,36.56,5.515ZM42.5,32.585l-4.3-4.3a1.528,1.528,0,0,0-2.163,0L34.4,29.935l-6.011-6.011L32.711,19.6l12.006,12c-.761.3-1.5.62-2.218.978ZM47.849,23.4a1.528,1.528,0,0,0-1.528,1.528V28.9l-3.515-3.515L54.222,5.616,60.03,8.965l-.287,4.781-3.112.833A1.528,1.528,0,0,0,55.55,16.45l.724,2.7-2.7.723a1.528,1.528,0,0,0-.987,2.149l.677,1.375Zm20.632,9.188a29.081,29.081,0,0,0-3.821-1.576V28.244l3.651-3.653a13.564,13.564,0,0,0,4.026,4.142Z" transform="translate(-2 -2)" fill="#323232"/>
        <path id="Trazado_900085" data-name="Trazado 900085" d="M42.306,32.057a12.2,12.2,0,0,1,6.5,1.883,1.528,1.528,0,1,0,1.629-2.584,15.317,15.317,0,1,0,4.8,4.8,1.528,1.528,0,1,0-2.584,1.629,12.219,12.219,0,1,1-10.344-5.728Z" transform="translate(11.185 12.265)" fill="#323232"/>
      </g>
    </g>
  </g>
</svg>
