<svg xmlns="http://www.w3.org/2000/svg" width="160.005" height="160" viewBox="0 0 160.005 160">
  <g id="Grupo_1110111" data-name="Grupo 1110111" transform="translate(0)">
    <path id="Trazado_899838" data-name="Trazado 899838" d="M25.35,77.091c-14.14,0-26.949-10.78-24.233-26.779C4.267,31.772,25.45,9.152,25.45,9.152s21.19,22.62,24.326,41.159C52.5,66.311,39.489,77.091,25.35,77.091Z" transform="translate(107.338 21.356)" fill="#ff8300" fill-rule="evenodd"/>
    <path id="Trazado_899839" data-name="Trazado 899839" d="M2.8,50.311C5.952,31.772,27.135,9.152,27.135,9.152s.973,1.047,2.483,2.8c6.353,8.293,14.436,20.586,16.29,31.5,2.72,16-10.286,26.783-24.426,26.783A26.333,26.333,0,0,1,4.815,64.467,22.2,22.2,0,0,1,2.8,50.311Z" transform="translate(105.653 21.356)" fill="#ffa511"/>
    <path id="Trazado_899840" data-name="Trazado 899840" d="M47.63,40.958l12.376,3.993-5.717,16.98L41.783,58.338Z" transform="translate(-39.302 95.568)" fill="#96a7b3"/>
    <path id="Trazado_899841" data-name="Trazado 899841" d="M31.041,10.93,60.75.75l3.737,9.5-28.169,9.1L15.825,37.6,9.008,28.883Z" transform="translate(65.464 1.752)" fill="#96a7b3"/>
    <path id="Trazado_899842" data-name="Trazado 899842" d="M40.164,65.9l-4.2-5.767A12.286,12.286,0,0,1,38.87,42.8L88.916,7.633,103.882,26.3,88.9,47.3l12.73,16.906a10.756,10.756,0,0,1,1.887,8.923l-7.257,30.963a13.15,13.15,0,0,1-13.953,10.666l-33.836-2.493L43.964,124.6l-21.71-6.84ZM79.029,104a7.126,7.126,0,0,0,7.623-5.483l6.1-26.733a2.387,2.387,0,0,0-.53-2.1l-6.447-7.427L66.106,64.035,52.4,101.564Z" transform="translate(-18.084 17.812)" fill="#066aaa"/>
    <path id="Trazado_899843" data-name="Trazado 899843" d="M47,58.809l-20.11-1.843L38.266,25.8l19.666-1.773L60.6,27.1,54.615,53.342A7.127,7.127,0,0,1,47,58.809Z" transform="translate(9.76 56.061)" fill="none"/>
    <path id="Trazado_899844" data-name="Trazado 899844" d="M39.712,65.9l-4.2-5.767c-.1-.137-.157-.283-.247-.42A12.113,12.113,0,0,1,38.419,42.8L88.464,7.633l10.13,12.64L86.071,37.822a4.263,4.263,0,0,0,.067,5.033L88.944,46.6l-.5.71,10.3,13.666a10.69,10.69,0,0,1,.137,5.213L91.611,97.158a13.15,13.15,0,0,1-13.953,10.666l-33.836-2.493-3.14,8.586a4.18,4.18,0,0,1-5.18,2.553L23.543,112.7Zm12.233,35.666L78.565,104A7.127,7.127,0,0,0,86.2,98.521l6.1-26.733a2.387,2.387,0,0,0-.53-2.1l-3.773-4.333.113-.5a2.38,2.38,0,0,0-.53-2.1l-6.447-7.43L61.465,57.105l-13.7,37.516,6.51.593Z" transform="translate(-17.632 17.812)" fill="#067bbc"/>
    <path id="Trazado_899845" data-name="Trazado 899845" d="M25.406,9.17a2.577,2.577,0,0,1,3.65,0c.883.943,21.73,23.383,24.966,42.449a24.236,24.236,0,0,1-5.2,20.063,28.526,28.526,0,0,1-21.69,9.633,28.276,28.276,0,0,1-21.5-9.54A24.363,24.363,0,0,1,.423,51.619C3.673,32.553,24.52,10.114,25.406,9.17ZM9.453,68.552a23.236,23.236,0,0,0,17.666,7.763,23.476,23.476,0,0,0,17.87-7.86,19.09,19.09,0,0,0,4.093-16C46.629,38.01,32.336,20.523,27.216,14.634,22.1,20.52,7.81,37.993,5.353,52.456a19.193,19.193,0,0,0,4.1,16.1Z" transform="translate(105.555 19.631)"/>
    <path id="Trazado_899846" data-name="Trazado 899846" d="M10.266,22.655a2.5,2.5,0,1,1,4.85,1.213c-.134.54-.25,1.08-.334,1.61a11.05,11.05,0,0,0,2.28,9.266,13,13,0,0,0,5.867,3.85,2.5,2.5,0,0,1-.793,4.873,2.443,2.443,0,0,1-.793-.13,18.033,18.033,0,0,1-8.1-5.37,15.893,15.893,0,0,1-3.39-13.333c.107-.65.257-1.313.413-1.98Z" transform="translate(103.536 48.443)"/>
    <path id="Trazado_899847" data-name="Trazado 899847" d="M8.369,153.108l3.107-9.266a2.5,2.5,0,0,1,4.74,1.587l-2.277,6.793,7.7,2.213,4.04-12.053-14-4.41a2.5,2.5,0,0,1-1.61-3.2L27.548,84.13l-3.433-4.713a14.786,14.786,0,0,1,3.493-20.853L77.654,23.4a2.5,2.5,0,0,1,3.39.48l2.407,3,19.73-16.136a2.516,2.516,0,0,1,.773-.43L133.663.138a2.49,2.49,0,0,1,3.14,1.45l3.733,9.5a2.5,2.5,0,0,1-1.557,3.293l-27.666,8.95-17.886,16,2.583,3.223a2.5,2.5,0,0,1-3.9,3.127l-13.5-16.843L30.481,62.667a9.816,9.816,0,0,0-4.083,6.46,9.71,9.71,0,0,0,1.757,7.357l4.2,5.767a2.51,2.51,0,0,1,.333,2.29L15.618,133.985,32.6,139.319l3.687-10.093a2.51,2.51,0,0,1,2.533-1.637l33.839,2.493a10.666,10.666,0,0,0,11.333-8.743L91.25,90.376A8.24,8.24,0,0,0,89.8,83.53L77.07,66.62a2.5,2.5,0,0,1-.037-2.957l10.333-14.47a2.5,2.5,0,1,1,4.07,2.9L82.18,65.077,93.8,80.527a13.216,13.216,0,0,1,2.333,11L88.9,122.362a15.606,15.606,0,0,1-16.6,12.71l-31.953-2.353-3.86,10.563a2.5,2.5,0,0,1-3.1,1.527l-2.943-.927-4.827,14.41a2.5,2.5,0,0,1-3.06,1.61l-12.506-3.6a2.5,2.5,0,0,1-1.667-3.2Zm100-133.86a2.44,2.44,0,0,1,.9-.517L134.9,10.445l-1.887-4.8L106,14.9,86.57,30.788l3.72,4.64Z" transform="translate(-8.258 0.001)"/>
    <path id="Trazado_899848" data-name="Trazado 899848" d="M29.676,65.923a2.5,2.5,0,1,1-4.7-1.713l13.7-37.519a2.5,2.5,0,0,1,2.127-1.63l19.666-1.777a2.53,2.53,0,0,1,2.11.853l6.45,7.43a4.9,4.9,0,0,1,1.077,4.29L64.012,62.593a9.666,9.666,0,0,1-9.4,7.43,6.6,6.6,0,0,1-.887-.04L35.389,68.316a2.5,2.5,0,0,1,.453-4.983l18.333,1.683a4.613,4.613,0,0,0,4.957-3.533l6.117-26.639-5.6-6.463-4.96.447-4.823,15.13,3.45,7.886a2.5,2.5,0,0,1-4.58,2L44.905,45.1a2.493,2.493,0,0,1-.093-1.763l4.47-14.023-6.447.583Z" transform="translate(6.997 54.31)"/>
  </g>
</svg>
