<svg xmlns="http://www.w3.org/2000/svg" width="135.13" height="134.942" viewBox="0 0 135.13 134.942">
  <g id="Grupo_1110085" data-name="Grupo 1110085" transform="translate(0 -0.355)">
    <g id="Grupo_1110083" data-name="Grupo 1110083" transform="translate(1.98 2.334)">
      <g id="Grupo_1110082" data-name="Grupo 1110082" transform="translate(0 19.67)">
        <g id="Grupo_1110080" data-name="Grupo 1110080" transform="translate(76.411)">
          <path id="Trazado_899791" data-name="Trazado 899791" d="M0,0H21.069V33.751H0Z" transform="translate(23.862 16.023) rotate(45)" fill="#838383"/>
          <path id="Trazado_899792" data-name="Trazado 899792" d="M353.647,143.148l-3.156,3.156,11.742,11.742-20.709,20.71,3.156,3.156,23.865-23.865Z" transform="translate(-329.78 -127.112)" fill="#6d6d6d"/>
          <path id="Trazado_899793" data-name="Trazado 899793" d="M409.011,111.876l-23-23-7.637,7.637a3.578,3.578,0,0,0,0,5.06l17.935,17.935a3.578,3.578,0,0,0,5.06,0Z" transform="translate(-356.137 -87.167)" fill="#cecece"/>
          <path id="Trazado_899794" data-name="Trazado 899794" d="M401.439,88.881l-3.156,3.156,19.839,19.839-5.268,5.26a3.564,3.564,0,0,1-2.451,1.044l1.333,1.333a3.578,3.578,0,0,0,5.06,0l7.637-7.637Z" transform="translate(-371.56 -87.167)" fill="#bfbfbf"/>
          <path id="Trazado_899795" data-name="Trazado 899795" d="M433.235,107.1l-23-23,8.786-1.642a4.259,4.259,0,0,1,3.794,1.175l11.052,11.052a4.258,4.258,0,0,1,1.156,3.888Z" transform="translate(-380.361 -82.386)" fill="#8795de"/>
          <path id="Trazado_899796" data-name="Trazado 899796" d="M449.363,94.686,438.311,83.634a4.259,4.259,0,0,0-3.794-1.175l-3.231.6a4.272,4.272,0,0,1,.712.571l11.052,11.052a4.258,4.258,0,0,1,1.156,3.888l-.7,3.307,5.215,5.215,1.792-8.522A4.257,4.257,0,0,0,449.363,94.686Z" transform="translate(-395.853 -82.386)" fill="#6c7fd8"/>
        </g>
        <g id="Grupo_1110081" data-name="Grupo 1110081">
          <path id="Trazado_899797" data-name="Trazado 899797" d="M106.867,167.011l-14.9,14.9L79.7,169.637,68.105,158.043l14.9-14.9,13.518,13.518Z" transform="translate(-52.111 -127.11)" fill="#838383"/>
          <path id="Trazado_899798" data-name="Trazado 899798" d="M115.749,143.148l-3.156,3.156,20.71,20.709L121.56,178.756l3.156,3.156,14.9-14.9Z" transform="translate(-84.858 -127.112)" fill="#6d6d6d"/>
          <path id="Trazado_899799" data-name="Trazado 899799" d="M14.64,111.876l23-23,7.637,7.637a3.578,3.578,0,0,1,0,5.06L27.338,119.513a3.578,3.578,0,0,1-5.06,0Z" transform="translate(-12.757 -87.167)" fill="#cecece"/>
          <path id="Trazado_899800" data-name="Trazado 899800" d="M61.323,96.518l-7.637-7.637-3.156,3.156,4.481,4.481a3.578,3.578,0,0,1,0,5.06L39.877,116.7a3.573,3.573,0,0,1-3.432.929l1.883,1.883a3.578,3.578,0,0,0,5.06,0l17.935-17.935A3.578,3.578,0,0,0,61.323,96.518Z" transform="translate(-28.807 -87.167)" fill="#bfbfbf"/>
          <path id="Trazado_899801" data-name="Trazado 899801" d="M9.388,107.1l23-23L23.6,82.459A4.259,4.259,0,0,0,19.8,83.634L8.752,94.685A4.258,4.258,0,0,0,7.6,98.573Z" transform="translate(-7.504 -82.386)" fill="#8795de"/>
          <path id="Trazado_899802" data-name="Trazado 899802" d="M25.79,82.459A4.258,4.258,0,0,0,22,83.634l-.561.561a4.258,4.258,0,0,1,3.147-.646l3.681.551-17.78,17.78,1.1,5.215,23-23Z" transform="translate(-9.698 -82.386)" fill="#6c7fd8"/>
        </g>
      </g>
      <path id="Trazado_899803" data-name="Trazado 899803" d="M24.461,278.307H50.381V267.459H24.461a4.756,4.756,0,0,0-4.756,4.756v1.335A4.756,4.756,0,0,0,24.461,278.307Z" transform="translate(-16.485 -198.944)" fill="#cecece"/>
      <path id="Trazado_899804" data-name="Trazado 899804" d="M112.02,267.459h6.312v10.848H112.02Z" transform="translate(-84.436 -198.944)" fill="#bfbfbf"/>
      <path id="Trazado_899805" data-name="Trazado 899805" d="M24.461,319.41H50.381V308.562H24.461a4.756,4.756,0,0,0-4.756,4.756v1.335A4.756,4.756,0,0,0,24.461,319.41Z" transform="translate(-16.485 -229.2)" fill="#cecece"/>
      <path id="Trazado_899806" data-name="Trazado 899806" d="M112.02,308.561h6.312v10.848H112.02Z" transform="translate(-84.436 -229.199)" fill="#bfbfbf"/>
      <path id="Trazado_899807" data-name="Trazado 899807" d="M24.461,360.512H50.381V349.664H24.461a4.756,4.756,0,0,0-4.756,4.756v1.335A4.756,4.756,0,0,0,24.461,360.512Z" transform="translate(-16.485 -259.454)" fill="#cecece"/>
      <path id="Trazado_899808" data-name="Trazado 899808" d="M112.02,349.664h6.312v10.848H112.02Z" transform="translate(-84.436 -259.454)" fill="#bfbfbf"/>
      <path id="Trazado_899809" data-name="Trazado 899809" d="M401.807,278.307H375.888V267.459h25.919a4.756,4.756,0,0,1,4.756,4.756v1.335A4.756,4.756,0,0,1,401.807,278.307Z" transform="translate(-278.664 -198.944)" fill="#cecece"/>
      <path id="Trazado_899810" data-name="Trazado 899810" d="M456.493,267.459h-6.312a4.756,4.756,0,0,1,4.756,4.756v1.335a4.756,4.756,0,0,1-4.756,4.756h6.312a4.756,4.756,0,0,0,4.756-4.756v-1.335A4.756,4.756,0,0,0,456.493,267.459Z" transform="translate(-333.35 -198.944)" fill="#bfbfbf"/>
      <path id="Trazado_899811" data-name="Trazado 899811" d="M401.807,319.41H375.888V308.562h25.919a4.756,4.756,0,0,1,4.756,4.756v1.335A4.757,4.757,0,0,1,401.807,319.41Z" transform="translate(-278.664 -229.2)" fill="#cecece"/>
      <path id="Trazado_899812" data-name="Trazado 899812" d="M456.493,308.561h-6.312a4.756,4.756,0,0,1,4.756,4.756v1.335a4.756,4.756,0,0,1-4.756,4.756h6.312a4.756,4.756,0,0,0,4.756-4.756v-1.335A4.757,4.757,0,0,0,456.493,308.561Z" transform="translate(-333.35 -229.199)" fill="#bfbfbf"/>
      <path id="Trazado_899813" data-name="Trazado 899813" d="M401.807,360.512H375.888V349.664h25.919a4.756,4.756,0,0,1,4.756,4.756v1.335A4.756,4.756,0,0,1,401.807,360.512Z" transform="translate(-278.664 -259.454)" fill="#cecece"/>
      <path id="Trazado_899814" data-name="Trazado 899814" d="M139.2,204.713l-14.9,14.9-12.272-12.272a7.387,7.387,0,0,1,4.2-6.6l10.881-5.207a7.4,7.4,0,0,0,1.747-1.167Z" transform="translate(-84.44 -145.141)" fill="#6d6d6d"/>
      <path id="Trazado_899815" data-name="Trazado 899815" d="M456.493,349.664h-6.312a4.756,4.756,0,0,1,4.756,4.756v1.335a4.756,4.756,0,0,1-4.756,4.756h6.312a4.756,4.756,0,0,0,4.756-4.756V354.42A4.756,4.756,0,0,0,456.493,349.664Z" transform="translate(-333.35 -259.454)" fill="#bfbfbf"/>
      <path id="Trazado_899816" data-name="Trazado 899816" d="M199.262,156.113V195.9a11.226,11.226,0,0,1-4.278,8.817l-8.116,6.4v10.306a3.415,3.415,0,0,1-3.415,3.415H151.742a3.415,3.415,0,0,1-3.415-3.415V211.116l-8.116-6.4a11.226,11.226,0,0,1-4.278-8.817v-39.79a7.387,7.387,0,0,1,4.2-6.663l10.88-5.206a7.387,7.387,0,0,0,4.2-6.663V124.688h24.775V137.58a7.387,7.387,0,0,0,4.2,6.663l10.88,5.206A7.387,7.387,0,0,1,199.262,156.113Z" transform="translate(-102.038 -93.853)" fill="#cecece"/>
      <path id="Trazado_899817" data-name="Trazado 899817" d="M300.323,149.449l-10.88-5.206a7.387,7.387,0,0,1-4.2-6.663V124.688h-6.312V137.58a7.387,7.387,0,0,0,4.2,6.663l10.88,5.206a7.387,7.387,0,0,1,4.2,6.663V195.9a11.226,11.226,0,0,1-4.278,8.817l-8.116,6.4v10.306a3.415,3.415,0,0,1-3.415,3.415h6.312a3.415,3.415,0,0,0,3.415-3.415V211.116l8.116-6.4a11.226,11.226,0,0,0,4.278-8.817v-39.79A7.387,7.387,0,0,0,300.323,149.449Z" transform="translate(-207.298 -93.853)" fill="#bfbfbf"/>
      <path id="Trazado_899818" data-name="Trazado 899818" d="M215.754,64.4H180.3a3.028,3.028,0,0,1-3.028-3.028V45.9a3.028,3.028,0,0,1,3.028-3.028h35.451a3.028,3.028,0,0,1,3.028,3.028v15.48A3.029,3.029,0,0,1,215.754,64.4Z" transform="translate(-132.469 -33.627)" fill="#a6e7f0"/>
      <path id="Trazado_899819" data-name="Trazado 899819" d="M305.471,42.868h-6.312a3.028,3.028,0,0,1,3.028,3.028v15.48a3.028,3.028,0,0,1-3.028,3.028h6.312a3.028,3.028,0,0,0,3.028-3.028V45.9A3.028,3.028,0,0,0,305.471,42.868Z" transform="translate(-222.186 -33.627)" fill="#6bd9e7"/>
      <path id="Trazado_899820" data-name="Trazado 899820" d="M233.9,7.855H220.042a3.448,3.448,0,0,0-3.448,3.448V17.1h20.754V11.3A3.449,3.449,0,0,0,233.9,7.855Z" transform="translate(-161.411 -7.855)" fill="#8795de"/>
      <path id="Trazado_899821" data-name="Trazado 899821" d="M264.56,7.855h-6.312A3.448,3.448,0,0,1,261.7,11.3V17.1h6.312V11.3a3.448,3.448,0,0,0-3.448-3.448Z" transform="translate(-192.072 -7.855)" fill="#6c7fd8"/>
      <path id="Trazado_899822" data-name="Trazado 899822" d="M221.435,452.165v10.306a3.415,3.415,0,0,1-3.415,3.415H186.309a3.415,3.415,0,0,1-3.415-3.415V452.165Z" transform="translate(-136.605 -334.903)" fill="#eaf9fa"/>
      <path id="Trazado_899823" data-name="Trazado 899823" d="M295.488,452.165v10.306a3.415,3.415,0,0,1-3.415,3.415h6.312a3.415,3.415,0,0,0,3.415-3.415V452.165Z" transform="translate(-216.97 -334.903)" fill="#d4f2f6"/>
      <circle id="Elipse_11507" data-name="Elipse 11507" cx="9.855" cy="9.855" r="9.855" transform="translate(55.729 58.705)" fill="#838383"/>
      <path id="Trazado_899824" data-name="Trazado 899824" d="M247.2,230.289a9.833,9.833,0,0,0-3.156.519,9.854,9.854,0,0,1,0,18.671,9.855,9.855,0,1,0,3.156-19.191Z" transform="translate(-181.619 -171.584)" fill="#6d6d6d"/>
      <circle id="Elipse_11508" data-name="Elipse 11508" cx="9.855" cy="9.855" r="9.855" transform="translate(44.05 87.122)" fill="#838383"/>
      <path id="Trazado_899825" data-name="Trazado 899825" d="M202.949,337.965a9.832,9.832,0,0,0-3.156.519,9.854,9.854,0,0,1,0,18.671,9.855,9.855,0,1,0,3.156-19.191Z" transform="translate(-149.044 -250.842)" fill="#6d6d6d"/>
      <circle id="Elipse_11509" data-name="Elipse 11509" cx="5.104" cy="5.104" r="5.104" transform="translate(76.358 85.106)" fill="#8795de"/>
    </g>
    <g id="Grupo_1110084" data-name="Grupo 1110084" transform="translate(0 0.355)">
      <path id="Trazado_899826" data-name="Trazado 899826" d="M133.3,32.9,122.249,21.853a6.237,6.237,0,0,0-5.557-1.721l-8.785,1.642a2.063,2.063,0,0,0-1.036.546l-7.637,7.637a5.669,5.669,0,0,0,.224,8.084L86.05,51.45a5.979,5.979,0,0,1-4.142-5.39V35.091h3.358a5.013,5.013,0,0,0,5.008-5.008V14.6A5.013,5.013,0,0,0,85.266,9.6H79.9V5.783A5.434,5.434,0,0,0,74.468.355H60.612a5.434,5.434,0,0,0-5.428,5.428V9.6H49.814A5.013,5.013,0,0,0,44.807,14.6v15.48a5.013,5.013,0,0,0,5.008,5.008h3.359v10.97a5.95,5.95,0,0,1-4.109,5.374L35.672,38.04a5.689,5.689,0,0,0,.224-8.084l-7.637-7.637a1.98,1.98,0,0,0-1.036-.546l-8.786-1.642a6.237,6.237,0,0,0-5.557,1.721L1.828,32.9A6.217,6.217,0,0,0,.135,38.6l1.792,8.522a2.062,2.062,0,0,0,.537.992L10.1,55.751a5.558,5.558,0,0,0,7.86,0l.013-.013L31.1,68.87H9.957a6.743,6.743,0,0,0-6.736,6.735v1.335A6.715,6.715,0,0,0,5.192,81.7a6.714,6.714,0,0,0-1.971,4.756v1.335a6.714,6.714,0,0,0,1.971,4.756A6.714,6.714,0,0,0,3.221,97.3v1.335a6.743,6.743,0,0,0,6.736,6.735h23.98a13.117,13.117,0,0,0,4.992,9.384l7.362,5.8V129.9a5.4,5.4,0,0,0,5.395,5.395H83.4A5.4,5.4,0,0,0,88.79,129.9v-9.345l7.362-5.8a13.117,13.117,0,0,0,4.992-9.384h23.98a6.743,6.743,0,0,0,6.735-6.735V97.3a6.714,6.714,0,0,0-1.971-4.756,6.714,6.714,0,0,0,1.971-4.756V86.453a6.715,6.715,0,0,0-1.971-4.756,6.715,6.715,0,0,0,1.971-4.756V75.605a6.743,6.743,0,0,0-6.735-6.735h-21.1l13.13-13.132.013.013a5.558,5.558,0,0,0,7.86,0l7.637-7.637a2.017,2.017,0,0,0,.537-.992l1.792-8.522A6.22,6.22,0,0,0,133.3,32.9ZM59.143,5.783a1.471,1.471,0,0,1,1.469-1.469H74.469a1.471,1.471,0,0,1,1.469,1.469V9.6h-16.8V5.783Zm-10.377,24.3V21.917h4.48a1.979,1.979,0,1,0,0-3.959h-4.48V14.6a1.05,1.05,0,0,1,1.049-1.049H85.265A1.05,1.05,0,0,1,86.315,14.6v3.355H62.48a1.979,1.979,0,0,0,0,3.959H86.315v8.166a1.05,1.05,0,0,1-1.049,1.049H49.814a1.05,1.05,0,0,1-1.049-1.049Zm68.654-6.06a2.277,2.277,0,0,1,2.03.629L130.5,35.7a2.272,2.272,0,0,1,.619,2.081l-1.04,4.945L112.326,24.975Zm-21.646,23.3,12.1,12.1-6.689,6.69V64.594a9.413,9.413,0,0,0-5.324-8.449l-6.024-2.883ZM4.627,35.7,15.679,24.652a2.5,2.5,0,0,1,2.03-.629l5.094.952L5.049,42.729l-1.04-4.945A2.272,2.272,0,0,1,4.627,35.7Zm9.4,17.716a1.589,1.589,0,0,1-1.131-.468L6.663,46.714l20.2-20.2L33.1,32.756a1.632,1.632,0,0,1,0,2.261L15.161,52.952A1.587,1.587,0,0,1,14.031,53.42Zm18.841-12.58,3.684,3.685L29.6,51.479a1.979,1.979,0,1,0,2.8,2.8l6.955-6.955,5.922,5.923-6.057,2.9A9.414,9.414,0,0,0,33.9,64.594v1.469L20.773,52.938ZM7.18,87.788V86.453a2.78,2.78,0,0,1,2.777-2.777H33.9v6.889H9.957A2.78,2.78,0,0,1,7.18,87.788Zm0-12.183a2.78,2.78,0,0,1,2.777-2.777H33.9v6.889H9.957A2.78,2.78,0,0,1,7.18,76.941Zm0,23.031V97.3a2.78,2.78,0,0,1,2.777-2.777H33.9v6.889H9.957A2.78,2.78,0,0,1,7.18,98.636ZM84.832,129.9a1.437,1.437,0,0,1-1.436,1.436H51.684a1.437,1.437,0,0,1-1.436-1.436v-8.326H84.832Zm8.87-18.256-7.577,5.971H48.955l-7.577-5.971a9.193,9.193,0,0,1-3.524-7.263V64.594a5.435,5.435,0,0,1,3.074-4.878l10.88-5.206a9.413,9.413,0,0,0,5.324-8.449V35.148H77.949V46.061a9.413,9.413,0,0,0,5.323,8.449l10.88,5.206a5.436,5.436,0,0,1,3.074,4.878v39.79a9.2,9.2,0,0,1-3.524,7.263Zm34.2-13.01a2.78,2.78,0,0,1-2.777,2.777H101.184V94.524h4.044a1.979,1.979,0,1,0,0-3.959h-4.044V83.676h23.939a2.78,2.78,0,0,1,2.777,2.777v1.335a2.78,2.78,0,0,1-2.777,2.777H114.491a1.979,1.979,0,1,0,0,3.959h10.632A2.78,2.78,0,0,1,127.9,97.3v1.336Zm0-23.031V76.94a2.78,2.78,0,0,1-2.777,2.777H101.184V72.828h23.939A2.78,2.78,0,0,1,127.9,75.605ZM110.672,56.623l-12.1-12.1,3.684-3.685,12.1,12.1Zm11.556-3.671a1.6,1.6,0,0,1-2.26,0L102.033,35.017a1.6,1.6,0,0,1,0-2.261l6.238-6.238,20.2,20.2Z" transform="translate(0 -0.355)"/>
      <circle id="Elipse_11510" data-name="Elipse 11510" cx="1.973" cy="1.973" r="1.973" transform="translate(75.686 127.162) rotate(-67.486)"/>
      <circle id="Elipse_11511" data-name="Elipse 11511" cx="1.973" cy="1.973" r="1.973" transform="matrix(0.987, -0.16, 0.16, 0.987, 54.613, 124.432)"/>
      <path id="Trazado_899827" data-name="Trazado 899827" d="M212.657,253.146,201.043,229.4c-.024-.049-.051-.1-.078-.142a11.828,11.828,0,0,0-21.537,1c-.011.025-.024.048-.035.073l-11.622,28.277c-.014.033-.024.068-.036.1a11.828,11.828,0,0,0,16.245,14.941l24.75-10.723a7.081,7.081,0,0,0,3.94-9.754C212.665,253.165,212.662,253.155,212.657,253.146Zm-3.231,3.128a3.124,3.124,0,1,1-3.124-3.124A3.128,3.128,0,0,1,209.426,256.274ZM206.3,249.19a7.079,7.079,0,0,0-4.6,12.466l-11.72,5.078a11.829,11.829,0,0,0-15.169-14.855l4.966-12.083a11.831,11.831,0,0,0,21.6-.7l4.938,10.1Zm-15.878-22.443a7.875,7.875,0,1,1-7.876,7.875A7.884,7.884,0,0,1,190.424,226.748Zm-19.555,36.293a7.876,7.876,0,1,1,7.876,7.876A7.885,7.885,0,0,1,170.869,263.041Z" transform="translate(-122.859 -164.084)"/>
      <circle id="Elipse_11512" data-name="Elipse 11512" cx="1.973" cy="1.973" r="1.973" transform="translate(65.592 68.566)"/>
      <circle id="Elipse_11513" data-name="Elipse 11513" cx="1.973" cy="1.973" r="1.973" transform="translate(53.912 96.984)"/>
    </g>
  </g>
</svg>
