<svg xmlns="http://www.w3.org/2000/svg" xmlns:xlink="http://www.w3.org/1999/xlink" width="400" height="308" viewBox="0 0 400 308">
  <defs>
    <linearGradient id="linear-gradient" x1="-0.19" y1="0.644" x2="1.172" y2="0.68" gradientUnits="objectBoundingBox">
      <stop offset="0" stop-color="#9e9e9e"/>
      <stop offset="0.219" stop-color="#8c8c8c"/>
      <stop offset="0.539" stop-color="#d9d8d8"/>
      <stop offset="0.824" stop-color="#b4b4b4"/>
      <stop offset="1" stop-color="#9e9e9e"/>
    </linearGradient>
    <clipPath id="clip-path">
      <rect id="Rectángulo_404107" data-name="Rectángulo 404107" width="114.385" height="282.883" fill="none"/>
    </clipPath>
    <linearGradient id="linear-gradient-2" x1="-0.066" y1="0.293" x2="1.163" y2="0.285" xlink:href="#linear-gradient"/>
    <linearGradient id="linear-gradient-3" x1="0.114" y1="0.5" x2="1" y2="0.5" gradientUnits="objectBoundingBox">
      <stop offset="0" stop-color="#2e7e80"/>
      <stop offset="0.31" stop-color="#41b2b4"/>
      <stop offset="0.586" stop-color="#57eff2"/>
      <stop offset="0.793" stop-color="#54e8eb"/>
      <stop offset="1" stop-color="#2e7e80"/>
    </linearGradient>
    <linearGradient id="linear-gradient-4" x1="0.5" x2="0.5" y2="1" gradientUnits="objectBoundingBox">
      <stop offset="0" stop-color="#636363"/>
      <stop offset="1" stop-color="#141414"/>
    </linearGradient>
    <linearGradient id="linear-gradient-5" x1="-0.328" y1="0.642" x2="1.495" y2="0.627" xlink:href="#linear-gradient"/>
    <linearGradient id="linear-gradient-8" x1="0.5" x2="0.5" y2="1" gradientUnits="objectBoundingBox">
      <stop offset="0" stop-color="#636363"/>
      <stop offset="0.783" stop-color="#252525"/>
      <stop offset="1" stop-color="#141414"/>
    </linearGradient>
  </defs>
  <g id="Grupo_1110070" data-name="Grupo 1110070" transform="translate(-815.051 -880)">
    <rect id="Rectángulo_404030" data-name="Rectángulo 404030" width="400" height="308" rx="8" transform="translate(815.051 880)" fill="#e5f0fe"/>
    <path id="Trazado_900107" data-name="Trazado 900107" d="M3.359-4.008V0H1.016V-11.375H5.453a5.134,5.134,0,0,1,2.254.469A3.454,3.454,0,0,1,9.2-9.574a3.714,3.714,0,0,1,.523,1.965A3.266,3.266,0,0,1,8.582-4.973a4.767,4.767,0,0,1-3.168.965Zm0-1.9H5.453a2.059,2.059,0,0,0,1.418-.437,1.591,1.591,0,0,0,.488-1.25,1.876,1.876,0,0,0-.492-1.352,1.839,1.839,0,0,0-1.359-.531H3.359ZM13.57,0H11.3V-12H13.57Zm6.758,0A2.507,2.507,0,0,1,20.1-.758a2.732,2.732,0,0,1-2.133.914A3,3,0,0,1,15.91-.562a2.312,2.312,0,0,1-.816-1.812,2.389,2.389,0,0,1,1-2.062,4.915,4.915,0,0,1,2.879-.727h1.039v-.484a1.393,1.393,0,0,0-.3-.937,1.183,1.183,0,0,0-.949-.352,1.345,1.345,0,0,0-.895.273.929.929,0,0,0-.324.75H15.281a2.268,2.268,0,0,1,.453-1.359,3,3,0,0,1,1.281-.98,4.669,4.669,0,0,1,1.859-.355,3.689,3.689,0,0,1,2.48.785,2.747,2.747,0,0,1,.918,2.207v3.664a4.041,4.041,0,0,0,.336,1.82V0ZM18.461-1.57a1.945,1.945,0,0,0,.922-.223,1.462,1.462,0,0,0,.625-.6V-3.844h-.844q-1.7,0-1.8,1.172l-.008.133a.9.9,0,0,0,.3.7A1.153,1.153,0,0,0,18.461-1.57Zm8.25-8.961v2.078h1.445V-6.8H26.711v4.219a1.007,1.007,0,0,0,.18.672.9.9,0,0,0,.688.2,3.6,3.6,0,0,0,.664-.055V-.047a4.648,4.648,0,0,1-1.367.2,2.156,2.156,0,0,1-2.422-2.4V-6.8H23.219V-8.453h1.234v-2.078ZM31.8,0H29.531V-8.453H31.8ZM29.4-10.641a1.112,1.112,0,0,1,.34-.836,1.277,1.277,0,0,1,.926-.328,1.28,1.28,0,0,1,.922.328,1.105,1.105,0,0,1,.344.836,1.108,1.108,0,0,1-.348.844,1.283,1.283,0,0,1-.918.328,1.283,1.283,0,0,1-.918-.328A1.108,1.108,0,0,1,29.4-10.641ZM36.039,0H33.773V-12h2.266Zm4.242,0H38.016V-12h2.266Zm1.508-4.3a5.013,5.013,0,0,1,.484-2.242A3.546,3.546,0,0,1,43.668-8.07a4.069,4.069,0,0,1,2.113-.539,3.849,3.849,0,0,1,2.793,1.047,4.2,4.2,0,0,1,1.207,2.844l.016.578A4.418,4.418,0,0,1,48.711-1.02,3.775,3.775,0,0,1,45.8.156a3.793,3.793,0,0,1-2.918-1.172A4.5,4.5,0,0,1,41.789-4.2Zm2.258.16A3.16,3.16,0,0,0,44.5-2.3a1.5,1.5,0,0,0,1.3.638,1.5,1.5,0,0,0,1.281-.63,3.457,3.457,0,0,0,.461-2.015,3.128,3.128,0,0,0-.461-1.831,1.5,1.5,0,0,0-1.3-.649,1.474,1.474,0,0,0-1.281.646A3.516,3.516,0,0,0,44.047-4.144Z" transform="translate(865.051 928)" fill="#12263f"/>
    <path id="Trazado_900106" data-name="Trazado 900106" d="M6.914-2.984A1.2,1.2,0,0,0,6.445-4a6.148,6.148,0,0,0-1.687-.75,11.963,11.963,0,0,1-1.93-.777A3.153,3.153,0,0,1,.891-8.352,2.747,2.747,0,0,1,1.41-10,3.389,3.389,0,0,1,2.9-11.125a5.616,5.616,0,0,1,2.184-.406,5.112,5.112,0,0,1,2.172.441,3.458,3.458,0,0,1,1.48,1.246,3.261,3.261,0,0,1,.527,1.828H6.922A1.534,1.534,0,0,0,6.43-9.23a2.023,2.023,0,0,0-1.383-.434A2.162,2.162,0,0,0,3.711-9.3a1.146,1.146,0,0,0-.477.957,1.1,1.1,0,0,0,.559.93,6.311,6.311,0,0,0,1.645.7A7.106,7.106,0,0,1,8.352-5.219,2.972,2.972,0,0,1,9.266-3,2.737,2.737,0,0,1,8.148-.684a4.891,4.891,0,0,1-3.008.84A5.808,5.808,0,0,1,2.75-.324,3.783,3.783,0,0,1,1.105-1.641,3.371,3.371,0,0,1,.539-3.578H2.891q0,1.883,2.25,1.883a2.189,2.189,0,0,0,1.3-.34A1.106,1.106,0,0,0,6.914-2.984ZM14.594.156A4.15,4.15,0,0,1,11.566-.984,4.054,4.054,0,0,1,10.4-4.023v-.219a5.106,5.106,0,0,1,.492-2.277,3.612,3.612,0,0,1,1.395-1.547,3.914,3.914,0,0,1,2.059-.543,3.508,3.508,0,0,1,2.73,1.094,4.444,4.444,0,0,1,1,3.1v.922H12.688a2.1,2.1,0,0,0,.66,1.328,2,2,0,0,0,1.395.5,2.437,2.437,0,0,0,2.039-.945l1.109,1.242A3.389,3.389,0,0,1,16.516-.246,4.511,4.511,0,0,1,14.594.156Zm-.258-6.945a1.411,1.411,0,0,0-1.09.455,2.357,2.357,0,0,0-.535,1.3h3.141v-.181a1.681,1.681,0,0,0-.406-1.165A1.456,1.456,0,0,0,14.336-6.789Zm4.688,2.5a4.954,4.954,0,0,1,.926-3.133,3,3,0,0,1,2.5-1.187,2.631,2.631,0,0,1,2.164.953l.094-.8H26.75V-.281a3.613,3.613,0,0,1-.5,1.93A3.236,3.236,0,0,1,24.828,2.9a4.985,4.985,0,0,1-2.141.43,4.635,4.635,0,0,1-1.812-.371A3.217,3.217,0,0,1,19.539,2l1-1.375a2.645,2.645,0,0,0,2.047.945,1.936,1.936,0,0,0,1.4-.48,1.8,1.8,0,0,0,.5-1.363V-.727A2.612,2.612,0,0,1,22.43.156a2.992,2.992,0,0,1-2.465-1.191,4.953,4.953,0,0,1-.941-3.16Zm2.258.161a3.1,3.1,0,0,0,.461,1.809,1.465,1.465,0,0,0,1.266.655,1.567,1.567,0,0,0,1.477-.777V-6.012a1.563,1.563,0,0,0-1.461-.777,1.474,1.474,0,0,0-1.277.667A3.5,3.5,0,0,0,21.281-4.128ZM33.547-.859A2.831,2.831,0,0,1,31.234.156,2.67,2.67,0,0,1,29.16-.625a3.335,3.335,0,0,1-.73-2.289V-8.453h2.258v5.467q0,1.322,1.2,1.322a1.63,1.63,0,0,0,1.578-.8V-8.453h2.266V0H33.609Zm8.641-5.477a6.134,6.134,0,0,0-.812-.062,1.654,1.654,0,0,0-1.68.867V0H37.438V-8.453H39.57l.063,1.008a2.092,2.092,0,0,1,1.883-1.164,2.366,2.366,0,0,1,.7.1ZM42.641-4.3a5.013,5.013,0,0,1,.484-2.242A3.546,3.546,0,0,1,44.52-8.07a4.069,4.069,0,0,1,2.113-.539,3.849,3.849,0,0,1,2.793,1.047,4.2,4.2,0,0,1,1.207,2.844l.016.578A4.418,4.418,0,0,1,49.563-1.02,3.775,3.775,0,0,1,46.648.156,3.793,3.793,0,0,1,43.73-1.016,4.5,4.5,0,0,1,42.641-4.2Zm2.258.16A3.16,3.16,0,0,0,45.352-2.3a1.5,1.5,0,0,0,1.3.638,1.5,1.5,0,0,0,1.281-.63,3.457,3.457,0,0,0,.461-2.015A3.128,3.128,0,0,0,47.93-6.14a1.5,1.5,0,0,0-1.3-.649,1.474,1.474,0,0,0-1.281.646A3.516,3.516,0,0,0,44.9-4.144Z" transform="translate(1105.051 928)" fill="#12263f"/>
    <path id="Trazado_900109" data-name="Trazado 900109" d="M4.078-11.375,7-3.125l2.906-8.25h3.078V0H10.633V-3.109l.234-5.367L7.8,0H6.188L3.125-8.469l.234,5.359V0H1.016V-11.375ZM19.945-.859A2.831,2.831,0,0,1,17.633.156a2.67,2.67,0,0,1-2.074-.781,3.335,3.335,0,0,1-.73-2.289V-8.453h2.258v5.467q0,1.322,1.2,1.322a1.63,1.63,0,0,0,1.578-.8V-8.453h2.266V0H20.008ZM27.727.156A4.15,4.15,0,0,1,24.7-.984a4.054,4.054,0,0,1-1.168-3.039v-.219a5.106,5.106,0,0,1,.492-2.277,3.612,3.612,0,0,1,1.395-1.547,3.914,3.914,0,0,1,2.059-.543,3.508,3.508,0,0,1,2.73,1.094,4.444,4.444,0,0,1,1,3.1v.922H25.82a2.1,2.1,0,0,0,.66,1.328,2,2,0,0,0,1.395.5,2.437,2.437,0,0,0,2.039-.945l1.109,1.242A3.389,3.389,0,0,1,29.648-.246,4.511,4.511,0,0,1,27.727.156Zm-.258-6.945a1.411,1.411,0,0,0-1.09.455,2.357,2.357,0,0,0-.535,1.3h3.141v-.181a1.681,1.681,0,0,0-.406-1.165A1.456,1.456,0,0,0,27.469-6.789ZM34.867,0H32.6V-12h2.266Zm4.242,0H36.844V-12h2.266Zm5.75.156A4.15,4.15,0,0,1,41.832-.984a4.054,4.054,0,0,1-1.168-3.039v-.219a5.106,5.106,0,0,1,.492-2.277,3.612,3.612,0,0,1,1.395-1.547,3.914,3.914,0,0,1,2.059-.543,3.508,3.508,0,0,1,2.73,1.094,4.444,4.444,0,0,1,1,3.1v.922H42.953a2.1,2.1,0,0,0,.66,1.328,2,2,0,0,0,1.395.5,2.437,2.437,0,0,0,2.039-.945l1.109,1.242A3.389,3.389,0,0,1,46.781-.246,4.511,4.511,0,0,1,44.859.156ZM44.6-6.789a1.411,1.411,0,0,0-1.09.455,2.357,2.357,0,0,0-.535,1.3h3.141v-.181a1.681,1.681,0,0,0-.406-1.165A1.456,1.456,0,0,0,44.6-6.789Z" transform="translate(1105.051 990)" fill="#12263f"/>
    <path id="Trazado_900111" data-name="Trazado 900111" d="M9.945-3.789A4.025,4.025,0,0,1,8.59-.9,4.76,4.76,0,0,1,5.367.156,4.28,4.28,0,0,1,1.926-1.316,6.038,6.038,0,0,1,.672-5.359v-.7A6.819,6.819,0,0,1,1.25-8.945,4.332,4.332,0,0,1,2.9-10.863a4.629,4.629,0,0,1,2.5-.668A4.637,4.637,0,0,1,8.57-10.477,4.326,4.326,0,0,1,9.961-7.516H7.617A2.376,2.376,0,0,0,7-9.113a2.271,2.271,0,0,0-1.605-.5,1.991,1.991,0,0,0-1.754.84,4.707,4.707,0,0,0-.6,2.605V-5.3a5.038,5.038,0,0,0,.559,2.7,1.954,1.954,0,0,0,1.762.852,2.314,2.314,0,0,0,1.621-.5A2.241,2.241,0,0,0,7.6-3.789ZM16.234,0a2.507,2.507,0,0,1-.227-.758,2.732,2.732,0,0,1-2.133.914,3,3,0,0,1-2.059-.719A2.312,2.312,0,0,1,11-2.375a2.389,2.389,0,0,1,1-2.062,4.915,4.915,0,0,1,2.879-.727h1.039v-.484a1.393,1.393,0,0,0-.3-.937,1.183,1.183,0,0,0-.949-.352,1.345,1.345,0,0,0-.895.273.929.929,0,0,0-.324.75H11.188a2.268,2.268,0,0,1,.453-1.359,3,3,0,0,1,1.281-.98,4.669,4.669,0,0,1,1.859-.355,3.689,3.689,0,0,1,2.48.785,2.747,2.747,0,0,1,.918,2.207v3.664a4.041,4.041,0,0,0,.336,1.82V0ZM14.367-1.57a1.945,1.945,0,0,0,.922-.223,1.462,1.462,0,0,0,.625-.6V-3.844H15.07q-1.7,0-1.8,1.172l-.008.133a.9.9,0,0,0,.3.7A1.153,1.153,0,0,0,14.367-1.57ZM27.531-4.148A5.119,5.119,0,0,1,26.664-.98,2.872,2.872,0,0,1,24.242.156,2.639,2.639,0,0,1,22.047-.9l-.1.9H19.914V-12h2.258v4.3a2.571,2.571,0,0,1,2.055-.914,2.9,2.9,0,0,1,2.426,1.137,5.126,5.126,0,0,1,.879,3.2Zm-2.258-.172A3.381,3.381,0,0,0,24.867-6.2a1.372,1.372,0,0,0-1.211-.592,1.489,1.489,0,0,0-1.484.885v3.346a1.509,1.509,0,0,0,1.5.893,1.4,1.4,0,0,0,1.438-1.081A5.6,5.6,0,0,0,25.273-4.321ZM32.813.156A4.15,4.15,0,0,1,29.785-.984a4.054,4.054,0,0,1-1.168-3.039v-.219a5.106,5.106,0,0,1,.492-2.277A3.612,3.612,0,0,1,30.5-8.066a3.914,3.914,0,0,1,2.059-.543,3.508,3.508,0,0,1,2.73,1.094,4.444,4.444,0,0,1,1,3.1v.922H30.906a2.1,2.1,0,0,0,.66,1.328,2,2,0,0,0,1.395.5A2.437,2.437,0,0,0,35-2.609l1.109,1.242A3.389,3.389,0,0,1,34.734-.246,4.511,4.511,0,0,1,32.813.156Zm-.258-6.945a1.411,1.411,0,0,0-1.09.455,2.357,2.357,0,0,0-.535,1.3H34.07v-.181a1.681,1.681,0,0,0-.406-1.165A1.456,1.456,0,0,0,32.555-6.789ZM40.164-1.82H44.3V0H37.281V-1.375l3.977-5.258H37.4v-1.82h6.773v1.33ZM45.234-4.3a5.013,5.013,0,0,1,.484-2.242A3.546,3.546,0,0,1,47.113-8.07a4.069,4.069,0,0,1,2.113-.539A3.849,3.849,0,0,1,52.02-7.562a4.2,4.2,0,0,1,1.207,2.844l.016.578A4.418,4.418,0,0,1,52.156-1.02,3.775,3.775,0,0,1,49.242.156a3.793,3.793,0,0,1-2.918-1.172A4.5,4.5,0,0,1,45.234-4.2Zm2.258.16A3.16,3.16,0,0,0,47.945-2.3a1.5,1.5,0,0,0,1.3.638,1.5,1.5,0,0,0,1.281-.63,3.457,3.457,0,0,0,.461-2.015,3.128,3.128,0,0,0-.461-1.831,1.5,1.5,0,0,0-1.3-.649,1.474,1.474,0,0,0-1.281.646A3.516,3.516,0,0,0,47.492-4.144Zm9.844-6.387v2.078h1.445V-6.8H57.336v4.219a1.007,1.007,0,0,0,.18.672.9.9,0,0,0,.688.2,3.6,3.6,0,0,0,.664-.055V-.047a4.648,4.648,0,0,1-1.367.2,2.156,2.156,0,0,1-2.422-2.4V-6.8H53.844V-8.453h1.234v-2.078ZM63.93.156A4.15,4.15,0,0,1,60.9-.984a4.054,4.054,0,0,1-1.168-3.039v-.219a5.106,5.106,0,0,1,.492-2.277,3.612,3.612,0,0,1,1.395-1.547,3.914,3.914,0,0,1,2.059-.543,3.508,3.508,0,0,1,2.73,1.094,4.444,4.444,0,0,1,1,3.1v.922H62.023a2.1,2.1,0,0,0,.66,1.328,2,2,0,0,0,1.395.5,2.437,2.437,0,0,0,2.039-.945l1.109,1.242A3.389,3.389,0,0,1,65.852-.246,4.511,4.511,0,0,1,63.93.156Zm-.258-6.945a1.411,1.411,0,0,0-1.09.455,2.357,2.357,0,0,0-.535,1.3h3.141v-.181a1.681,1.681,0,0,0-.406-1.165A1.456,1.456,0,0,0,63.672-6.789Z" transform="translate(1105.051 1132)" fill="#12263f"/>
    <path id="Trazado_900108" data-name="Trazado 900108" d="M5.227-4.164H3.359V0H1.016V-11.375H5.242a4.778,4.778,0,0,1,3.109.9A3.1,3.1,0,0,1,9.445-7.937,3.5,3.5,0,0,1,8.941-6,3.437,3.437,0,0,1,7.414-4.758L9.875-.109V0H7.359Zm-1.867-1.9H5.25a1.936,1.936,0,0,0,1.367-.449A1.606,1.606,0,0,0,7.1-7.75a1.719,1.719,0,0,0-.457-1.266,1.9,1.9,0,0,0-1.4-.461H3.359ZM14.969.156A4.15,4.15,0,0,1,11.941-.984a4.054,4.054,0,0,1-1.168-3.039v-.219a5.106,5.106,0,0,1,.492-2.277A3.612,3.612,0,0,1,12.66-8.066a3.914,3.914,0,0,1,2.059-.543,3.508,3.508,0,0,1,2.73,1.094,4.444,4.444,0,0,1,1,3.1v.922H13.063a2.1,2.1,0,0,0,.66,1.328,2,2,0,0,0,1.395.5,2.437,2.437,0,0,0,2.039-.945l1.109,1.242A3.389,3.389,0,0,1,16.891-.246,4.511,4.511,0,0,1,14.969.156Zm-.258-6.945a1.411,1.411,0,0,0-1.09.455,2.357,2.357,0,0,0-.535,1.3h3.141v-.181a1.681,1.681,0,0,0-.406-1.165A1.456,1.456,0,0,0,14.711-6.789Zm7.719-3.742v2.078h1.445V-6.8H22.43v4.219a1.007,1.007,0,0,0,.18.672.9.9,0,0,0,.688.2,3.6,3.6,0,0,0,.664-.055V-.047a4.648,4.648,0,0,1-1.367.2,2.156,2.156,0,0,1-2.422-2.4V-6.8H18.938V-8.453h1.234v-2.078ZM29.023.156A4.15,4.15,0,0,1,26-.984a4.054,4.054,0,0,1-1.168-3.039v-.219A5.106,5.106,0,0,1,25.32-6.52a3.612,3.612,0,0,1,1.395-1.547,3.914,3.914,0,0,1,2.059-.543A3.508,3.508,0,0,1,31.5-7.516a4.444,4.444,0,0,1,1,3.1v.922H27.117a2.1,2.1,0,0,0,.66,1.328,2,2,0,0,0,1.395.5,2.437,2.437,0,0,0,2.039-.945L32.32-1.367A3.389,3.389,0,0,1,30.945-.246,4.511,4.511,0,0,1,29.023.156Zm-.258-6.945a1.411,1.411,0,0,0-1.09.455,2.357,2.357,0,0,0-.535,1.3h3.141v-.181a1.681,1.681,0,0,0-.406-1.165A1.456,1.456,0,0,0,28.766-6.789Zm7.094-1.664.07.977a2.951,2.951,0,0,1,2.43-1.133,2.453,2.453,0,0,1,2,.789,3.682,3.682,0,0,1,.672,2.359V0H38.773V-5.419a1.47,1.47,0,0,0-.312-1.045,1.4,1.4,0,0,0-1.039-.325,1.553,1.553,0,0,0-1.43.814V0H33.734V-8.453ZM46.633.156A4.15,4.15,0,0,1,43.605-.984a4.054,4.054,0,0,1-1.168-3.039v-.219A5.106,5.106,0,0,1,42.93-6.52a3.612,3.612,0,0,1,1.395-1.547,3.914,3.914,0,0,1,2.059-.543,3.508,3.508,0,0,1,2.73,1.094,4.444,4.444,0,0,1,1,3.1v.922H44.727a2.1,2.1,0,0,0,.66,1.328,2,2,0,0,0,1.395.5,2.437,2.437,0,0,0,2.039-.945L49.93-1.367A3.389,3.389,0,0,1,48.555-.246,4.511,4.511,0,0,1,46.633.156Zm-.258-6.945a1.411,1.411,0,0,0-1.09.455,2.357,2.357,0,0,0-.535,1.3h3.141v-.181a1.681,1.681,0,0,0-.406-1.165A1.456,1.456,0,0,0,46.375-6.789Zm4.664,2.5a5.094,5.094,0,0,1,.887-3.148,2.877,2.877,0,0,1,2.426-1.172,2.589,2.589,0,0,1,2.039.922V-12h2.266V0H56.617l-.109-.9A2.657,2.657,0,0,1,54.336.156,2.869,2.869,0,0,1,51.941-1.02,5.258,5.258,0,0,1,51.039-4.289Zm2.258.161A3.355,3.355,0,0,0,53.711-2.3a1.348,1.348,0,0,0,1.2.636,1.51,1.51,0,0,0,1.477-.887V-5.9a1.489,1.489,0,0,0-1.461-.887Q53.3-6.789,53.3-4.128ZM60.055-4.3a5.013,5.013,0,0,1,.484-2.242A3.546,3.546,0,0,1,61.934-8.07a4.069,4.069,0,0,1,2.113-.539A3.849,3.849,0,0,1,66.84-7.562a4.2,4.2,0,0,1,1.207,2.844l.016.578A4.418,4.418,0,0,1,66.977-1.02,3.775,3.775,0,0,1,64.063.156a3.793,3.793,0,0,1-2.918-1.172A4.5,4.5,0,0,1,60.055-4.2Zm2.258.16A3.16,3.16,0,0,0,62.766-2.3a1.5,1.5,0,0,0,1.3.638,1.5,1.5,0,0,0,1.281-.63A3.457,3.457,0,0,0,65.8-4.309a3.128,3.128,0,0,0-.461-1.831,1.5,1.5,0,0,0-1.3-.649,1.474,1.474,0,0,0-1.281.646A3.516,3.516,0,0,0,62.313-4.144ZM74.2-6.336a6.134,6.134,0,0,0-.812-.062,1.654,1.654,0,0,0-1.68.867V0H69.453V-8.453h2.133l.063,1.008a2.092,2.092,0,0,1,1.883-1.164,2.366,2.366,0,0,1,.7.1Z" transform="translate(865.051 990)" fill="#12263f"/>
    <path id="Trazado_900110" data-name="Trazado 900110" d="M5.219-2.82,7.8-11.375h2.609L6.445,0H4L.055-11.375h2.6ZM15.867,0a2.507,2.507,0,0,1-.227-.758,2.732,2.732,0,0,1-2.133.914,3,3,0,0,1-2.059-.719,2.312,2.312,0,0,1-.816-1.812,2.389,2.389,0,0,1,1-2.062,4.915,4.915,0,0,1,2.879-.727h1.039v-.484a1.393,1.393,0,0,0-.3-.937,1.183,1.183,0,0,0-.949-.352,1.345,1.345,0,0,0-.895.273.929.929,0,0,0-.324.75H10.82a2.268,2.268,0,0,1,.453-1.359,3,3,0,0,1,1.281-.98,4.669,4.669,0,0,1,1.859-.355,3.689,3.689,0,0,1,2.48.785,2.747,2.747,0,0,1,.918,2.207v3.664a4.041,4.041,0,0,0,.336,1.82V0ZM14-1.57a1.945,1.945,0,0,0,.922-.223,1.462,1.462,0,0,0,.625-.6V-3.844H14.7q-1.7,0-1.8,1.172l-.008.133a.9.9,0,0,0,.3.7A1.153,1.153,0,0,0,14-1.57ZM14.859-12H17.32L15.156-9.578H13.32ZM21.93,0H19.664V-12H21.93Zm5.023-2.758,1.57-5.7h2.359L28.031,0H25.875L23.023-8.453h2.359Zm9.984,1.9A2.831,2.831,0,0,1,34.625.156a2.67,2.67,0,0,1-2.074-.781,3.335,3.335,0,0,1-.73-2.289V-8.453h2.258v5.467q0,1.322,1.2,1.322a1.63,1.63,0,0,0,1.578-.8V-8.453h2.266V0H37ZM43.211,0H40.945V-12h2.266Zm6.758,0a2.507,2.507,0,0,1-.227-.758,2.732,2.732,0,0,1-2.133.914,3,3,0,0,1-2.059-.719,2.312,2.312,0,0,1-.816-1.812,2.389,2.389,0,0,1,1-2.062,4.915,4.915,0,0,1,2.879-.727h1.039v-.484a1.393,1.393,0,0,0-.3-.937,1.183,1.183,0,0,0-.949-.352,1.345,1.345,0,0,0-.895.273.929.929,0,0,0-.324.75H44.922a2.268,2.268,0,0,1,.453-1.359,3,3,0,0,1,1.281-.98,4.669,4.669,0,0,1,1.859-.355A3.689,3.689,0,0,1,51-7.824a2.747,2.747,0,0,1,.918,2.207v3.664a4.041,4.041,0,0,0,.336,1.82V0ZM48.1-1.57a1.945,1.945,0,0,0,.922-.223,1.462,1.462,0,0,0,.625-.6V-3.844H48.8q-1.7,0-1.8,1.172l-.008.133a.9.9,0,0,0,.3.7A1.153,1.153,0,0,0,48.1-1.57Z" transform="translate(865.051 1061)" fill="#12263f"/>
    <line id="Línea_147" data-name="Línea 147" x2="51" transform="translate(929.551 922.5)" fill="none" stroke="#12263f" stroke-width="2"/>
    <g id="Grupo_1110069" data-name="Grupo 1110069" transform="translate(958.051 893.266)">
      <rect id="Rectángulo_404105" data-name="Rectángulo 404105" width="33.858" height="27.222" transform="translate(39.523 255.66)" fill="url(#linear-gradient)"/>
      <rect id="Rectángulo_404106" data-name="Rectángulo 404106" width="43.924" height="17.692" transform="translate(34.163 44.044)" fill="#ad0b00"/>
      <g id="Grupo_1110068" data-name="Grupo 1110068">
        <g id="Grupo_1110067" data-name="Grupo 1110067" clip-path="url(#clip-path)">
          <path id="Trazado_899743" data-name="Trazado 899743" d="M60.3,204.636H36.524a10.511,10.511,0,0,1-10.512-10.511V39.005h44.8v155.12A10.511,10.511,0,0,1,60.3,204.636" transform="translate(8.04 12.056)" fill="url(#linear-gradient-2)"/>
          <path id="Trazado_899744" data-name="Trazado 899744" d="M83.883,141.118H97.914l16.472,15.861v63.446H0V157.59L10.371,139.9H23.792v21.658H83.883Z" transform="translate(0 43.24)" fill="#dcc63a"/>
          <path id="Trazado_899745" data-name="Trazado 899745" d="M74.753,155.471v28.673L64.078,161.267V140.831Z" transform="translate(19.806 43.529)" fill="#6e5505"/>
          <path id="Trazado_899746" data-name="Trazado 899746" d="M91.1,179.319H11.185l9.151-22.878H80.121Z" transform="translate(3.457 48.354)" fill="#fedb0a"/>
          <path id="Trazado_899747" data-name="Trazado 899747" d="M60.3,185.98H36.524A10.511,10.511,0,0,1,26.012,175.47V99.362h44.8V175.47A10.511,10.511,0,0,1,60.3,185.98" transform="translate(8.04 30.711)" fill="url(#linear-gradient-3)"/>
          <path id="Trazado_899748" data-name="Trazado 899748" d="M22.294,137.612s-12.811,0-12.506,8.352,14.336,7.544,14.336,7.544,61.616.539,72.6-16.974S75.675,116.6,75.675,116.6v14.01s-12.507,5.119-42.7,5.928Z" transform="translate(3.024 36.038)" fill="url(#linear-gradient-4)"/>
          <path id="Trazado_899749" data-name="Trazado 899749" d="M92.2,14.306H12.583V38.4s1.377,5.185,18.181,5.8l41.046-.153s17.906,0,20.385-7.625Z" transform="translate(3.889 4.422)" fill="#ad0b00"/>
          <path id="Trazado_899750" data-name="Trazado 899750" d="M77.519,14.513H22.533V30.164s.952,3.368,12.558,3.765l28.348-.1s12.367,0,14.079-4.954Z" transform="translate(6.965 4.486)" fill="#ee9354"/>
          <path id="Trazado_899751" data-name="Trazado 899751" d="M66.06,51.212H30.524V38.306l.687-.571V33.044l-.687-.914V26.467l.687-.572V20.576L30.524,20v-10c0-7.013,5.685-10,12.7-10H53.364c7.013,0,12.7,2.991,12.7,10v8.912l-.686.8v6.445L66.06,27v5.566l-.686.84V36.8l.686.689Z" transform="translate(9.435 0)" fill="url(#linear-gradient-5)"/>
          <path id="Trazado_899752" data-name="Trazado 899752" d="M30.524,18.011V12.062a30.548,30.548,0,0,1,17.844-5.8A33.056,33.056,0,0,1,66.06,11.3v5.642s-5.225-4.994-17.692-4.88c-11.672.107-17.844,5.948-17.844,5.948" transform="translate(9.435 1.937)" fill="#636363"/>
          <path id="Trazado_899753" data-name="Trazado 899753" d="M30.524,26.763V21.174a41.15,41.15,0,0,1,17.844-3.986A34.835,34.835,0,0,1,66.1,21.765l-.038,5.49s-9.228-4.842-17.692-4.622c-8.72.226-17.844,4.13-17.844,4.13" transform="translate(9.435 5.313)" fill="#636363"/>
          <path id="Trazado_899754" data-name="Trazado 899754" d="M30.5,30.2s17.806-8.578,35.574-.648v3.812A64.615,64.615,0,0,0,48.53,30.843a55.577,55.577,0,0,0-18,2.821Z" transform="translate(9.426 8.093)" fill="#636363"/>
          <path id="Trazado_899755" data-name="Trazado 899755" d="M99.007,100.461c-.44-6.593-6.254-14.057-21.252-15.239a7.86,7.86,0,0,0-1.191,0v17.536c-9.7,2.978-27.1,5.757-44.5,6.819-.178.01-.356.025-.535.035-.118.007-.237.017-.353.029-7.364.768-24.509,3.853-24.654,15.877-.1,8.593,8.835,12.2,25.543,14.784V125.381c9.831-.71,29.295-2.6,44.5-6.64,8.555-2.275,15.764-5.228,19.128-9.043a12.469,12.469,0,0,0,3.315-9.237" transform="translate(2.017 26.334)" fill="url(#linear-gradient-4)"/>
          <path id="Trazado_899756" data-name="Trazado 899756" d="M99.007,70.752c-.44-6.593-6.254-14.057-21.252-15.239a7.862,7.862,0,0,0-1.191,0V73.052c-9.7,2.978-27.1,5.757-44.5,6.819-.178.01-.356.025-.535.035-.118.007-.237.017-.353.029C23.816,80.7,6.671,83.788,6.525,95.812c-.1,8.593,8.835,12.2,25.543,14.783V95.672c9.831-.71,29.295-2.6,44.5-6.64,8.555-2.275,15.764-5.228,19.128-9.043a12.47,12.47,0,0,0,3.315-9.237" transform="translate(2.017 17.152)" fill="url(#linear-gradient-4)"/>
          <path id="Trazado_899757" data-name="Trazado 899757" d="M12.583,25.258s0,10.981,17.082,12.506l2.286,1.678V43.1l-1.79.153-.041-2.288s-15.556-.915-17.538-5.948c0,0,.228-9.99,0-9.761" transform="translate(3.889 7.806)" fill="#3e0a00"/>
          <path id="Trazado_899758" data-name="Trazado 899758" d="M85.056,54.1s12.57,0,12.27-9.387-14.066-8.478-14.066-8.478-60.454-.606-71.227,19.076,20.65,22.408,20.65,22.408V61.971s12.271-5.753,41.9-6.662Z" transform="translate(3.024 11.192)" fill="url(#linear-gradient-8)"/>
        </g>
      </g>
    </g>
    <line id="Línea_148" data-name="Línea 148" x2="53" transform="translate(947.551 985.5)" fill="none" stroke="#12263f" stroke-width="2"/>
    <line id="Línea_150" data-name="Línea 150" x2="63.5" transform="translate(1036.051 922.5)" fill="none" stroke="#12263f" stroke-width="2"/>
    <line id="Línea_151" data-name="Línea 151" x2="42" transform="translate(1057.551 984.5)" fill="none" stroke="#12263f" stroke-width="2"/>
    <line id="Línea_152" data-name="Línea 152" x2="27" transform="translate(1072.551 1126.5)" fill="none" stroke="#12263f" stroke-width="2"/>
    <line id="Línea_149" data-name="Línea 149" x2="82" transform="translate(918.551 1055.633)" fill="none" stroke="#12263f" stroke-width="2"/>
  </g>
</svg>
