<svg xmlns="http://www.w3.org/2000/svg" width="145.033" height="128.64" viewBox="0 0 145.033 128.64">
  <g id="Grupo_1110074" data-name="Grupo 1110074" transform="translate(0 -39.832)">
    <path id="Trazado_899759" data-name="Trazado 899759" d="M104.46,125.707l-53.126-3.74L40.851,97.157A18.576,18.576,0,0,0,23.739,85.81H7.5v85.48H42.364a20.054,20.054,0,0,1,39.952,0H93.676v-9.953h21.741V137.465A11.785,11.785,0,0,0,104.46,125.707Z" transform="translate(-5.375 -32.954)" fill="#707dd3"/>
    <path id="Trazado_899760" data-name="Trazado 899760" d="M7.5,332.435v15.619H42.364a20.061,20.061,0,0,1,9.992-15.619Z" transform="translate(-5.375 -209.718)" fill="#5766cb"/>
    <path id="Trazado_899761" data-name="Trazado 899761" d="M268.479,226.271l-2.163-.152a11.738,11.738,0,0,1,1.791,6.244v13.266A10.606,10.606,0,0,1,257.5,256.235H236.343a20.061,20.061,0,0,1,9.992,15.619H257.7V261.9h21.741V238.028a11.786,11.786,0,0,0-10.959-11.757Z" transform="translate(-169.394 -133.518)" fill="#5766cb"/>
    <path id="Trazado_899762" data-name="Trazado 899762" d="M311.723,352.435h24v13.088h-24Z" transform="translate(-223.422 -224.052)" fill="#dae4ea"/>
    <path id="Trazado_899763" data-name="Trazado 899763" d="M324.389,352.435v3.03A4.393,4.393,0,0,1,320,359.858h-8.274v5.665h24V352.435Z" transform="translate(-223.422 -224.052)" fill="#c6d0da"/>
    <circle id="Elipse_11504" data-name="Elipse 11504" cx="20.059" cy="20.059" r="20.059" transform="translate(28.583 140.11) rotate(-45)" fill="#808b95"/>
    <path id="Trazado_899764" data-name="Trazado 899764" d="M168.07,323.766a20.059,20.059,0,0,1-14.179,34.247,20.222,20.222,0,0,1-2.848-.2,20.058,20.058,0,1,0,17.027-34.043Z" transform="translate(-108.257 -203.504)" fill="#5e6b75"/>
    <circle id="Elipse_11505" data-name="Elipse 11505" cx="8.63" cy="8.63" r="8.63" transform="translate(48.334 131.485)" fill="#dae4ea"/>
    <path id="Trazado_899765" data-name="Trazado 899765" d="M298.523,271.441v5.283a6.569,6.569,0,0,0,6.569,6.569h4.515V271.441Z" transform="translate(-213.961 -166.001)" fill="#e4936b"/>
    <path id="Trazado_899766" data-name="Trazado 899766" d="M337.652,271.441H352v11.852h-14.35Z" transform="translate(-242.006 -166.001)" fill="#f6f9f9"/>
    <path id="Trazado_899767" data-name="Trazado 899767" d="M345.054,278.113a10.555,10.555,0,0,1-1.352,5.181h12.636V271.442H345.054Z" transform="translate(-246.342 -166.002)" fill="#e7ecf1"/>
    <path id="Trazado_899768" data-name="Trazado 899768" d="M86.415,179.43H82.7a4.819,4.819,0,1,0,0,9.638h8.534v-4.819A4.819,4.819,0,0,0,86.415,179.43Z" transform="translate(-55.82 -100.054)" fill="#707dd3"/>
    <path id="Trazado_899769" data-name="Trazado 899769" d="M86.508,179.43h-.883a4.848,4.848,0,0,1,.037.57v2.167a2.652,2.652,0,0,1-2.652,2.652h-5a4.818,4.818,0,0,0,4.782,4.249h8.534v-4.819A4.819,4.819,0,0,0,86.508,179.43Z" transform="translate(-55.912 -100.054)" fill="#5766cb"/>
    <path id="Trazado_899770" data-name="Trazado 899770" d="M27.437,145.193a4.819,4.819,0,0,1,4.819-4.819h2.973l-3.71-8.781a10.9,10.9,0,0,0-10.036-6.655H7.5v25.074H32.256A4.819,4.819,0,0,1,27.437,145.193Z" transform="translate(-5.375 -60.998)" fill="#d5d8f1"/>
    <path id="Trazado_899771" data-name="Trazado 899771" d="M32.256,140.374h2.973l-3.71-8.781a10.9,10.9,0,0,0-10.036-6.655H19.7a10.85,10.85,0,0,1,.486.989l4.136,9.789a6.213,6.213,0,0,1-5.723,8.631H7.5v5.665H32.256a4.819,4.819,0,0,1,0-9.638Z" transform="translate(-5.375 -60.998)" fill="#bec3ea"/>
    <path id="Trazado_899772" data-name="Trazado 899772" d="M204.18,95.931a11.786,11.786,0,0,1,16.062.565l6.031-6.031a20.381,20.381,0,0,0-27.685-.973l-36.345,31.565,12.031.847Z" transform="translate(-116.285 -32.043)" fill="#5766cb"/>
    <path id="Trazado_899773" data-name="Trazado 899773" d="M439.716,412.3v3.375a3.667,3.667,0,0,1-3.269,3.646l-3.7.4a2.853,2.853,0,0,0-2.543,2.836V425.7a1.438,1.438,0,0,0,1.438,1.438h19.608V412.3h-11.53Z" transform="translate(-308.338 -266.959)" fill="#808b95"/>
    <path id="Trazado_899774" data-name="Trazado 899774" d="M431.592,54.733a8.945,8.945,0,1,0-17.618,3.106l.072.412,17.618-3.106Z" transform="translate(-296.61 -5.381)" fill="#e28086"/>
    <path id="Trazado_899775" data-name="Trazado 899775" d="M423.059,90.993q.544-.1,1.067-.24a1.072,1.072,0,0,1,1.332.853l.343,1.948h9.685L432.2,74.893,414.578,78,416,86.049a6.1,6.1,0,0,0,7.061,4.944Z" transform="translate(-297.141 -25.129)" fill="#f1d0a5"/>
    <path id="Trazado_899776" data-name="Trazado 899776" d="M431.493,141.129a1.84,1.84,0,0,0-1.089-.355h-9.7a1.157,1.157,0,0,0-.539.13,12.469,12.469,0,0,0-6.684,11.048v4.476h-6v8.529h6v14.37a13.772,13.772,0,0,0,6.257,11.541l3.7,2.408v16.843h11.53V147.986a8.492,8.492,0,0,0-3.474-6.857Z" transform="translate(-292.058 -72.348)" fill="#e28086"/>
    <path id="Trazado_899777" data-name="Trazado 899777" d="M471.5,141.129a1.84,1.84,0,0,0-1.089-.355H463.3a8.542,8.542,0,0,1,.14,1.547v67.8h11.53V147.986a8.492,8.492,0,0,0-3.474-6.857Z" transform="translate(-332.061 -72.348)" fill="#dd636e"/>
    <path id="Trazado_899778" data-name="Trazado 899778" d="M347.8,196.033h5.581v8.529H342.063v-2.787A5.741,5.741,0,0,1,347.8,196.033Z" transform="translate(-245.167 -111.954)" fill="#f1d0a5"/>
    <path id="Trazado_899779" data-name="Trazado 899779" d="M382.03,194.064h7.211v9.087H382.03Z" transform="translate(-273.813 -110.543)" fill="#f6e266"/>
    <path id="Trazado_899780" data-name="Trazado 899780" d="M459.02,385.573H471.9v7.571H459.02Z" transform="translate(-328.994 -247.803)" fill="#f6e266"/>
    <path id="Trazado_899781" data-name="Trazado 899781" d="M173.886,355.888a10.755,10.755,0,1,0,10.755,10.755A10.767,10.767,0,0,0,173.886,355.888Zm0,17.261a6.506,6.506,0,1,1,6.506-6.506A6.513,6.513,0,0,1,173.886,373.149Z" transform="translate(-116.921 -226.527)"/>
    <path id="Trazado_899782" data-name="Trazado 899782" d="M142.909,93.277a2.124,2.124,0,0,0,2.125-2.125V75.638a10.676,10.676,0,0,0-4.341-8.569,3.91,3.91,0,0,0-.483-.3l-2.694-15.279,4.457-.786a2.124,2.124,0,0,0-.738-4.184l-4.585.808a11.071,11.071,0,0,0-21.378,5.5l1.492,8.461a8.232,8.232,0,0,0,8.167,6.794A14.557,14.557,0,0,0,119.3,79.6v2.351h-2.436a2.117,2.117,0,0,0-1.435-.558h-7.211a2.117,2.117,0,0,0-1.435.558h-4.145a7.874,7.874,0,0,0-7.866,7.866v.5L79.4,89.238,76.537,76.566,89.288,65.492a9.693,9.693,0,0,1,13.167.463,2.125,2.125,0,0,0,3,0l6.031-6.031a2.125,2.125,0,0,0,0-3A22.514,22.514,0,0,0,80.91,55.845l-2.79,2.423a2.124,2.124,0,1,0,2.786,3.208l2.79-2.423a18.262,18.262,0,0,1,23.2-.542l-3.054,3.054a13.967,13.967,0,0,0-17.339.72L57.261,87.68l-6.038-.425L73.21,68.16a2.124,2.124,0,1,0-2.786-3.208L46.776,85.49,37.433,63.376A20.661,20.661,0,0,0,18.364,50.732H2.125A2.124,2.124,0,0,0,0,52.856v85.48a2.124,2.124,0,0,0,2.125,2.125H19.6a2.125,2.125,0,0,0,0-4.249H4.249V91.138H35.415a2.124,2.124,0,0,0,2.125-2.125V84.195a6.953,6.953,0,0,0-6.262-6.91L28.1,69.768a12.994,12.994,0,0,0-11.992-7.952H4.249V54.981H18.364A16.421,16.421,0,0,1,33.519,65.03L43.985,89.8a2.126,2.126,0,0,0,1.824,1.331c22.061,1.555,29.242,2.059,53.126,3.74a9.7,9.7,0,0,1,8.909,8.443H84.562a2.124,2.124,0,0,0-2.125,2.125v5.283a8.7,8.7,0,0,0,8.693,8.694h16.787v6.842H88.3a2.124,2.124,0,0,0-2.125,2.125v7.829H78.8a22.186,22.186,0,0,0-43.679,0H29.512a2.125,2.125,0,1,0,0,4.249h5.272a22.183,22.183,0,0,0,44.361,0h7.032v1.01A2.124,2.124,0,0,0,88.3,143.6h24a2.124,2.124,0,0,0,2.125-2.124V128.383a2.124,2.124,0,0,0-2.125-2.125h-.131V104.511a13.886,13.886,0,0,0-4.041-9.778H119.3v12.245a15.842,15.842,0,0,0,7.223,13.321l2.733,1.779V135.79a2.125,2.125,0,0,0-1.353,1.98v7.571a2.125,2.125,0,0,0,1.353,1.98v1.4a1.541,1.541,0,0,1-1.375,1.534l-3.7.4a4.97,4.97,0,0,0-4.437,4.948v3.134A3.567,3.567,0,0,0,123.3,162.3h19.608a2.124,2.124,0,0,0,2.125-2.125V101.066a2.125,2.125,0,0,0-4.249,0v34.579H133.5V120.926a2.124,2.124,0,0,0-.965-1.78l-3.7-2.408a11.607,11.607,0,0,1-5.292-9.76V94.732h4.847a6.361,6.361,0,0,0,5.692-3.487l1.827-3.584a2.124,2.124,0,1,0-3.785-1.93L130.3,89.315a2.13,2.13,0,0,1-1.906,1.168H117.552V86.2h8.229a2.124,2.124,0,0,0,1.893-1.16l2.391-4.69a2.124,2.124,0,0,0-3.785-1.93l-1.8,3.53h-.933V79.6a10.328,10.328,0,0,1,5.336-9.054h9.37a6.325,6.325,0,0,1,2.531,5.088V91.152A2.124,2.124,0,0,0,142.909,93.277ZM33.29,84.2v2.694H26.88a2.695,2.695,0,0,1,0-5.389H30.6A2.7,2.7,0,0,1,33.29,84.2ZM16.108,66.064a8.753,8.753,0,0,1,8.079,5.357l2.465,5.834a6.943,6.943,0,0,0-6.17,9.634H4.249V66.064ZM56.965,158.05A17.934,17.934,0,1,1,74.9,140.115,17.955,17.955,0,0,1,56.965,158.05Zm53.209-18.7H90.426v-8.839h19.748ZM86.687,110.723v-3.158h6.835v7.6h-2.39A4.45,4.45,0,0,1,86.687,110.723Zm21.185,4.445h-10.1v-7.6h10.1Zm32.913,42.882h-16.8V155.6a.727.727,0,0,1,.649-.724l3.7-.4a5.784,5.784,0,0,0,5.163-5.758v-1.251h7.281Zm0-18.155v3.322H132.15v-3.322ZM99.02,89.82a3.621,3.621,0,0,1,3.617-3.617h3.456v4.28H99.02ZM72.9,79.729l2.078,9.2L63.255,88.1Zm37.446,5.917H113.3v4.838h-2.962Zm14.647-41.457a6.9,6.9,0,0,1,1.2-.105,6.835,6.835,0,0,1,6.2,3.995l-13.01,2.294A6.833,6.833,0,0,1,124.989,44.188ZM130.443,66.3l-.034-.192a3.2,3.2,0,0,0-3.987-2.534c-.288.079-.581.145-.873.2h0a3.976,3.976,0,0,1-4.6-3.221l-1.05-5.957,13.433-2.369L135.814,66.3h-5.37Z" transform="translate(0 0)"/>
  </g>
</svg>
